<?xml version="1.0" encoding="utf-8"?>
<!DOCTYPE svg PUBLIC "-//W3C//DTD SVG 1.1//EN" "http://www.w3.org/Graphics/SVG/1.1/DTD/svg11.dtd">
<svg version="1.1" id="Layer_1" xmlns="http://www.w3.org/2000/svg" xmlns:xlink="http://www.w3.org/1999/xlink" x="0px" y="0px"
	 viewBox="-580.9541 -456.0009 2699.9082 2184.0435" enable-background="new -580.9541 -456.0009 2699.9082 2184.0435"
	 xml:space="preserve">
<g>
	<path fill="#1D1B19" d="M146.5272-399.2492c7.7399,0.0832,15.4965-0.5327,23.2198,0.1997c0.4993,0.6159,1.498,1.8476,1.9974,2.4801
		c0.8322,11.7846-0.1331,23.6525,0.3163,35.4705c-0.1997,5.7924,1.8976,13.2993-4.8104,15.9958
		c2.4135,0.3828,4.8603,0.6825,7.2073,1.4148c60.1716,21.6052,120.3766,43.0772,180.5982,64.516
		c0.0333-19.5579-0.0333-39.1157,0-58.6902c-0.1997-1.7976,0.2996-4.6939,2.813-4.2777c7.2572-0.3495,14.531,0.0499,21.8049-0.1165
		c0.5826,3.1459,0.9987,6.3084,1.032,9.5209c-0.0832,20.9228-0.0999,41.8455,0,62.7682
		c61.2037,21.8049,122.3407,43.793,183.5944,65.4981c0-18.3594,0.0332-36.7189-0.0167-55.0783
		c0.0499-5.2432-0.4993-10.5529,0.5992-15.7295c8.1061-0.6991,16.3621-0.8655,24.4182,0.4994
		c-0.183,26.4489-0.1165,52.8978-0.0332,79.3467c41.7789,14.8307,83.5079,29.7613,125.2369,44.7251
		c-0.1165-4.9103-0.0666-9.8705,1.3149-14.5976c17.1443,0.1331,34.2888,0.1831,51.4331-0.0333
		c0.8654,2.3636,1.731,4.7771,1.7144,7.3404c0,603.098,0,1206.2126,0,1809.3274c-0.183,6.6914,0.9655,13.6655-1.4315,20.1238
		c-19.458-0.7156-38.9992,0.7659-58.4072-1.2317c-368.4203-0.0167-736.8406,0-1105.2609,0
		c-20.0406,1.8809-40.1977,0.6825-60.2882,1.132c-1.2484-7.2074-0.7823-14.5311-0.7823-21.7885
		c-0.0166-48.2205,0-96.4576-0.0166-144.6782c-4.0447,0.2828-8.1061,0.516-12.1675,0.699
		c-0.0167,39.1658,0.0499,78.3314-0.0333,117.4805c-2.4302,12.4338-1.548,25.1173-1.6479,37.7177
		c-3.2957,3.1127-6.5581,6.2583-9.8039,9.4376c-10.0369-0.0167-20.0905-0.0167-30.1274,0V-77.5681
		c10.2533,0.3662,20.5898-0.749,30.7766,0.516c3.4289,1.315,9.0882,2.4801,9.0382,7.0741
		c0.3495,15.0471-0.0499,30.1108,0.1165,45.1579c4.6107,0,9.238,0,13.8486,0c0-43.8263,0.0333-87.6525-0.0166-131.4788
		c0.0666-2.9794,0.3995-5.9422,0.799-8.8884c14.5477-0.0832,29.0954,0.0499,43.6432-0.0999
		c9.2047-0.4827,18.1597,4.2778,24.2185,10.9857c38.8994-13.9651,77.8486-27.7472,116.7147-41.7623
		c0.1498-26.4988-0.4328-53.0309,0.2996-79.5298c7.6733,0.1332,15.4133-0.5493,23.07,0.233
		c3.8283,0.4661,3.2624,4.644,3.3456,7.4903c-0.0832,20.7563-0.0666,41.496-0.0333,62.2523
		c60.8707-21.5886,121.6915-43.2603,182.4624-65.1319c-0.0499-21.7716,0.0499-43.5599-0.0666-65.3482
		c0.2996-1.9641-0.6491-4.7272,1.5147-5.8757c7.4237-0.4994,14.9472-0.5826,22.3709,0.0666
		c2.8629,1.2983,2.0307,4.9435,2.3303,7.4569c-0.1165,18.1597-0.0666,36.3194-0.0666,54.4791
		c60.9873-21.7051,121.8746-43.6931,182.9285-65.2151C146.7436-363.2128,146.3108-381.2393,146.5272-399.2492 M171.9274-319.4365
		c0.1165,23.0699,0.2497,46.1399-0.0666,69.2099c1.6478-8.7719,5.4096-16.928,8.3392-25.3004
		c3.8783-10.6195,13.5324-17.3774,23.5693-21.5719c7.923-5.11,17.6436-2.6632,26.2658-1.0819
		C210.7602-305.5379,191.3022-312.3957,171.9274-319.4365 M91.7318-298.7135c4.8437-0.7657,9.8206-2.014,14.7308-1.0653
		c12.6003,5.11,26.2991,12.1342,30.9098,25.9496c3.329,10.0869,8.9051,19.741,7.8897,30.7433
		c1.0653-4.2944,1.2983-8.722,1.265-13.1329c-0.0999-20.7896,0.0167-41.5959-0.0666-62.3854
		C128.1677-312.1294,109.9248-305.488,91.7318-298.7135 M82.4439-290.108c-8.1061,6.375-8.0728,19.2916-2.6466,27.381
		c4.4276,4.0614,11.0023,3.6286,16.5285,2.5301c2.9961-3.6453,4.7106-8.0562,6.3417-12.4338
		c1.1984,0.3329,3.5787,0.9987,4.7605,1.3316c-1.2484,6.0588-3.5287,12.7334-9.2213,15.9459
		c-8.4224,2.8796-20.7396,1.3815-24.4016-7.8731c-4.9768-9.5542-4.2778-22.4874,3.5953-30.3105
		c-22.5873,8.0562-45.0913,16.3953-67.6952,24.4515c7.8065,1.2484,16.5618,1.6312,22.9701,6.8078
		c9.9371,9.1048,8.8052,25.1173,1.4314,35.4705c-6.9077,3.7784-14.7474,4.7605-22.271,2.3137
		c-4.5274-4.361-7.9396-9.6541-8.4889-16.0458c1.1818-0.2663,3.562-0.7823,4.7604-1.0486c1.4148,4.3443,2.0806,9.6708,6.425,12.1675
		c5.1433,2.297,10.6528,0.5493,15.5797-1.3982c5.2931-8.2226,6.8078-20.6897-0.9155-27.9303
		c-7.2572-4.1446-16.0624-5.0601-24.2684-4.4609c-8.9051,3.612-18.5259,7.8564-23.8356,16.362
		c-3.8617,6.2752-5.6094,13.5157-8.256,20.3402c-2.7963,6.9409-2.297,14.5976-3.2291,21.9048
		c-1.1152,8.955,0.5659,17.91,1.1984,26.8317c0.2996,5.16,2.6133,9.8372,4.2445,14.631c2.2138,6.2752,4.0614,12.9998,8.7886,17.9267
		c4.4276,5.4429,11.202,7.9397,17.2442,11.1022c4.8604,2.8463,10.6694,1.3815,15.896,0.6492
		c5.5428-0.9821,11.8845-2.4135,14.9638-7.6567c3.6952-6.2252,3.1792-14.3979,0.2497-20.8229
		c-2.6465-6.1586-10.9358-6.8744-16.5784-5.0268c-5.0601,2.014-5.8091,8.0728-7.3571,12.6169
		c-1.731-0.6658-3.4621-1.3316-5.1932-1.9807c1.5646-5.6427,3.2791-11.8013,8.6055-15.0637
		c7.1407-3.6453,14.9805-1.1152,21.8715,1.781c8.0562,10.4697,8.9883,26.6653-0.7657,36.386
		c23.0034-8.5555,46.2398-16.4952,69.2931-24.9342c-8.1061-0.9321-17.0445-1.4481-23.8523-6.4583
		c-10.503-9.0882-9.3045-25.8497-1.265-36.1529c5.1766-1.8309,10.5196-4.7272,16.1456-3.046
		c8.6887,0.749,13.0996,9.6374,14.2148,17.3441c-1.0986,0.1997-3.2957,0.6325-4.3943,0.8489
		c-2.3469-4.3776-2.5966-11.1189-8.2559-12.6003c-4.8936-1.8976-9.7706,0.3995-14.3646,1.9807
		c-4.2112,6.9243-5.7259,15.7295-2.4468,23.3363c4.1946,7.8398,14.1316,8.4723,21.9881,9.3378
		c7.2239,1.0154,13.0996-4.2112,19.3581-6.9077c12.5004-6.5415,15.2136-21.4055,19.7743-33.4565
		c3.1293-16.6283,2.9462-33.756,0.1332-50.4343c-2.7963-7.5235-5.0434-15.2801-8.5722-22.504
		c-4.8604-9.2213-15.0138-13.3493-24.0188-17.3441C98.3898-295.0516,89.7677-293.7533,82.4439-290.108 M195.8796-286.6958
		c-10.8192,7.3072-13.2327,20.8728-17.5438,32.2913c-3.0294,16.8947-3.1459,34.3553,0.2163,51.2
		c4.2611,10.6029,6.2086,23.303,16.0458,30.4936c5.2931,3.2791,10.8359,6.3584,16.7282,8.439
		c8.1228,0.5992,16.8781-0.2497,24.0354-4.4775c9.7041-8.0728,8.0396-28.7625-6.0588-30.8931
		c-3.2458,0.8822-7.3072,0.3662-9.7373,3.1126c-2.813,2.8297-3.3956,6.9743-4.7106,10.5696
		c-1.265-0.3662-3.7617-1.1319-5.0101-1.5147c1.1651-6.0588,3.9449-11.5516,8.5056-15.7462
		c7.5069-2.297,15.1636-1.2151,22.0213,2.4635c6.0921,8.6554,8.5056,20.6398,3.3956,30.2939
		c-6.2419,11.2853-20.9894,11.6349-32.3079,11.3685c25.3836,9.2213,50.8338,18.2429,76.2673,27.2811
		c-10.4197-9.3046-9.937-25.9495-1.8642-36.619c3.612-1.3316,7.1574-2.813,10.9025-3.7451
		c3.562,0.0666,7.0575,0.9487,10.5862,1.4814c5.11,4.1446,7.8398,10.1368,9.1215,16.4619
		c-1.0486,0.1165-3.1293,0.3495-4.1779,0.4494c-3.046-3.4122-2.58-10.3033-7.7399-12.0843
		c-4.9935-1.9142-10.0702-0.1831-14.7808,1.5646c-5.1766,6.9743-6.4915,16.878-2.3303,24.6346
		c3.2125,5.4263,9.9204,6.5082,15.5963,7.5735c4.9269,0.749,10.3865,1.8143,14.9306-0.9155
		c5.9755-3.2458,12.9165-5.4429,17.3607-10.8692c5.7093-5.7592,7.5402-13.8653,10.3865-21.1724
		c4.5607-10.3199,3.9782-21.8882,4.8936-32.9072c-1.1318-10.0536-0.2996-20.6398-4.4276-30.0941
		c-2.8629-7.2905-4.4775-15.4465-10.0203-21.3223c-4.3111-5.5761-11.2354-7.7898-17.2109-11.019
		c-4.9102-3.0128-10.8692-1.8643-16.2289-1.0986c-5.343,0.9821-11.5516,2.1306-14.6476,7.124
		c-3.9782,6.0754-3.9116,14.2814-1.032,20.8062c2.6632,6.7246,11.6848,7.3571,17.7269,5.4596
		c4.311-2.6798,5.2764-8.0728,6.8411-12.517c1.5813,0.5326,3.1625,1.0819,4.7438,1.6146
		c-1.0153,6.1586-3.7784,11.7014-8.4557,15.896c-7.2239,2.1638-14.6143,1.0819-21.4055-1.9641
		c-6.8744-8.7553-8.9883-21.2723-3.7285-31.3092c6.4915-10.9857,21.1891-10.9357,32.3911-11.019
		c-25.8829-9.5543-51.8824-18.8255-77.7654-28.3797c3.6785,4.1613,8.0229,8.489,8.5389,14.3646
		c2.014,8.206-0.8323,16.4952-5.2432,23.3696c-6.8078,3.5454-14.3646,4.7938-21.7717,2.3969
		c-4.8603-4.2611-8.0395-9.8538-8.9217-16.2788c1.1818-0.2663,3.562-0.8156,4.7605-1.0819
		c1.4648,4.2778,1.9807,9.6541,6.3417,12.1009c3.795,1.6145,8.1894,1.7976,12.0011,0.0999
		c5.2764-1.1818,7.1407-7.1074,7.8897-11.8013c1.1152-6.9077-0.516-15.9459-7.7399-18.8921
		c-6.3751-2.4801-13.3326-3.6786-20.1571-3.4788C206.9818-293.1873,201.4224-289.7751,195.8796-286.6958 M323.7631-264.275
		c4.9602,3.3956,11.202,5.626,15.0304,10.5696c9.1714,9.3545,10.3032,23.1199,16.0291,34.4052
		c0.4661-11.2354,0.1332-22.4707,0.233-33.7061C344.6359-256.7514,334.2328-260.663,323.7631-264.275 M-36.5844-252.2074
		c0.0167,16.7116-0.4661,33.4564,0.4827,50.1514c1.7311-9.6541,0.1997-19.9241,4.6939-28.9623
		c3.4289-11.0689,7.8398-22.2543,17.3774-29.5615C-21.4707-257.567-29.0442-254.9371-36.5844-252.2074 M380.689-243.6518
		c-0.0333,22.3043-0.1332,44.5919,0.0666,66.8962c5.7426-13.5324,7.873-29.9444,20.3901-39.3488
		c9.0716-4.9602,18.2762-11.8512,29.3118-9.5875C413.7958-231.4844,397.3007-237.7429,380.689-243.6518 M-110.7545-225.2924
		c11.0023-1.4814,20.5732,4.877,29.3118,10.6195c11.1521,8.8219,13.1662,23.5027,18.6091,35.7701
		c0.2497-21.2889-0.0167-42.5779,0.1498-63.8502C-78.7129-236.9273-94.7254-231.0849-110.7545-225.2924 M-129.58-211.011
		c-4.0114,7.5402-2.5467,16.9946,2.1472,23.8856c5.0268,2.1638,10.4364,2.7631,15.7295,1.1818
		c3.046-3.6785,4.9103-8.0728,6.1753-12.6335c1.2484,0.516,3.7285,1.5313,4.9768,2.0307
		c-1.0986,6.1087-3.9449,11.6848-8.7386,15.6796c-7.4403,2.2471-14.8473,0.7823-21.755-2.3636
		c-7.2905-9.8039-9.5542-25.2505-0.466-34.6382c-22.1046,8.3725-44.4921,16.0791-66.6299,24.3683
		c8.7719,1.5813,19.5745,2.3137,24.7012,10.8026c6.2585,9.5709,4.1279,22.6372-2.3137,31.6255
		c-6.9909,3.1959-15.1969,5.11-22.3875,1.4981c-4.877-3.7118-7.1407-9.471-8.5555-15.2135c1.7144-0.516,3.4455-1.0154,5.1932-1.5147
		c1.4148,4.0947,2.0973,8.8052,5.4928,11.8679c5.0601,3.0127,10.9691,1.1485,16.0624-0.6991
		c5.8258-8.1727,7.2073-21.289-0.9321-28.4297c-7.1573-4.078-15.9126-4.8104-24.0021-4.2278
		c-6.7246,2.6133-13.4159,5.9922-18.8754,10.8026c-6.8411,5.9756-8.955,15.097-12.0011,23.2531
		c-4.1613,9.6541-3.7285,20.4234-4.4941,30.71c0.6991,10.9358,0.2497,22.3875,4.7272,32.6242
		c2.8629,7.2905,4.6273,15.4632,10.3532,21.2057c4.5108,5.2765,11.2187,7.7066,17.2109,10.8525
		c4.2944,2.3636,9.3711,1.1651,13.9651,0.6492c6.5082-0.9987,14.1982-2.8796,17.1111-9.5542
		c2.6632-7.3404,2.2804-16.4785-2.9462-22.6205c-4.4775-3.2458-10.1035-2.5966-15.2302-1.8476
		c-3.329,3.5953-5.1433,8.1228-6.3917,12.8c-1.5979-1.032-5.5761-0.7157-4.6606-3.5787
		c1.0486-6.7912,5.5927-14.3646,13.1496-14.8474c5.9922-1.6811,11.6182,1.548,17.161,3.329
		c7.2738,10.2533,9.0382,25.8663-0.4494,35.3373c23.7524-8.3891,47.355-17.2942,71.2739-25.2005
		c-10.3199-1.032-23.3862-1.5313-29.2785-11.5849c-5.4928-9.6707-3.5287-22.1878,3.0294-30.8598
		c5.2931-1.9641,10.7527-4.7938,16.5451-3.096c8.5389,0.3329,12.5503,9.4543,14.0983,16.6783
		c-1.1319,0.4494-3.379,1.3649-4.5108,1.8143c-0.9654-2.5134-1.8642-5.0601-2.9129-7.5402
		c-3.1293-9.0882-18.3261-7.6234-21.6385,0.5659c-3.6453,7.7066-3.3623,18.5592,3.6619,24.3017
		c5.4096,2.9795,11.7014,3.8117,17.7602,4.3776c7.457,0.8822,13.5657-4.3776,20.0073-7.2739
		c10.3199-5.6427,13.5823-17.627,17.2276-27.9137c3.8949-8.4224,2.9961-17.8934,4.2445-26.8817
		c0.2331-9.4044-0.9321-18.8588-2.1805-28.1633c-4.3277-11.6682-6.658-25.7997-17.8934-33.0736
		c-7.1407-3.6952-14.3979-9.1548-22.9035-7.4403C-116.8299-218.9673-125.9014-218.2349-129.58-211.011 M396.5516-202.9382
		c-3.9282,7.2572-6.0754,15.3134-8.9883,22.9867c-3.0294,16.6949-3.0627,33.9391,0,50.6174
		c4.5107,11.2853,6.6414,25.1006,17.7435,32.1082c7.0076,3.5287,13.9485,9.5376,22.3376,7.8398
		c7.4902-1.1319,17.0778-1.7644,21.0393-9.3711c3.2291-7.2572,2.8795-16.5784-2.2305-22.8869
		c-4.4109-3.2125-10.686-3.9615-15.7461-1.8975c-4.2112,2.813-5.1932,7.9896-6.708,12.4338
		c-1.548-0.6492-3.0959-1.315-4.6273-1.9808c1.2151-3.9948,1.8809-8.439,4.827-11.6182c4.9603-6.658,14.9139-6.375,21.7883-3.0627
		c4.1446,1.0486,5.8591,5.3264,7.6401,8.7719c2.9461,7.2738,3.0293,16.0125-0.5161,23.0866
		c-6.2086,11.0689-20.7563,11.4684-31.9417,11.7847c25.0174,8.9217,49.9849,17.9267,75.0189,26.7485
		c-9.8538-9.5542-9.3045-26.0328-1.0652-36.4525c6.5581-3.279,13.7653-4.3111,20.8894-2.297
		c5.11,4.0614,8.0894,9.8705,9.1547,16.2621c-1.0986,0.2996-3.2791,0.8655-4.361,1.1485c-1.315-4.5607-3.1459-8.9716-6.3751-12.5004
		c-5.4762-1.3316-10.9524-0.4827-16.079,1.6645c-5.4596,8.1228-7.1241,21.1225,1.0985,27.9969
		c7.5403,4.7105,17.0945,5.16,25.7165,4.1779c9.8871-4.1612,20.5898-9.6208,24.8177-20.1904
		c3.845-10.4364,8.8384-20.7563,8.6721-32.1415c1.9474-12.1675,0.2663-24.4515-1.1985-36.5691
		c-2.064-7.0075-4.7271-13.8653-7.3737-20.6731c-4.6106-10.7027-15.6462-16.4785-26.0162-20.2902
		c-9.7206-0.2663-22.5871-0.3329-28.2964,9.0882c-3.4122,7.4902-2.064,16.3953,2.2471,23.2364
		c5.0267,2.1805,10.4031,3.0793,15.8294,1.9142c3.8283-3.4289,5.5095-8.2393,6.9742-13.0164
		c3.2125,0.4827,5.0267,3.046,3.2957,6.0588c-0.8655,4.6772-4.2611,8.0728-7.2905,11.4684
		c-7.3571,2.4801-14.7475,1.1984-21.5885-2.064c-8.2393-10.7194-9.0882-27.4642,1.2982-37.0851
		c7.407-3.5454,15.5464-4.9768,23.6858-5.5428c-23.8855-8.2726-47.5547-17.0944-71.2739-25.8164
		c9.1382,9.1381,8.8551,25.0008,1.0154,34.838c-6.2252,4.9436-14.631,5.0268-22.0047,2.9794
		c-4.6106-4.3277-7.6233-9.8372-8.389-16.1456c1.1152-0.233,3.3623-0.7157,4.4775-0.9488
		c1.1485,4.6273,2.7131,9.2546,6.4583,12.4671c5.5095,1.0154,12.1009,1.265,16.3287-3.046
		c5.3264-7.7732,5.7758-19.9573-1.5646-26.6486c-7.2739-4.1945-16.0957-5.16-24.3517-4.3943
		C411.7818-216.121,401.7282-211.9431,396.5516-202.9382 M145.4619-210.1788c-0.6658,8.5389-4.5774,16.2289-7.224,24.2351
		c-2.9628,8.9384-9.3212,16.6783-17.627,21.1391c8.6221-2.9295,17.1444-6.1087,25.7498-9.0715
		C146.0611-185.9437,147.6923-198.3109,145.4619-210.1788 M171.8109-208.9304c0.4328,11.9178,0.1331,23.8356,0.1831,35.7534
		c10.4864,3.9116,21.0393,7.5235,31.5423,11.3685c-10.2533-4.4775-19.8075-12.1675-23.6858-22.9867
		C176.9542-192.7514,173.6585-200.6245,171.8109-208.9304 M-36.0518-192.7847c-1.3316,28.0468-0.2497,56.1602-0.5992,84.2237
		c18.1597-6.3417,36.1529-13.2494,54.4624-19.175c-6.0588,0.0333-12.6669,1.6146-18.1597-1.7477
		c-6.7246-3.5454-14.2648-6.2419-19.2583-12.2507c-7.2739-7.2239-9.2713-17.627-12.8666-26.8317
		C-35.8686-176.223-34.2041-184.7952-36.0518-192.7847 M538.1672-186.6261c3.6453,2.347,7.3237,4.7771,10.1202,8.1394
		c6.6912,7.0575,8.5888,16.928,12.1008,25.6666c3.3624,7.4236,2.2471,15.7461,3.0961,23.6359
		c1.1484-15.9625,0.8655-31.975,0.699-47.9709C555.4614-180.1845,546.7726-183.2804,538.1672-186.6261 M-245.1795-176.4727
		c0,10.4364-0.1332,20.8728,0.0999,31.3092c3.5953-8.2226,5.8757-16.928,9.4377-25.1506
		c2.0307-5.2765,6.3584-9.0382,10.0203-13.1495C-232.1797-181.2165-238.6546-178.7863-245.1795-176.4727 M344.6359-147.7101
		c-5.2931,10.8359-16.6783,16.2955-27.1812,20.9061c-4.6606,0.9821-9.5209,0.233-14.2314,0.3496
		c17.1277,6.5748,34.5384,12.4837,51.8158,18.6757c0-22.9202,0.0832-45.8403-0.0499-68.7605
		C351.9929-166.7852,348.7139-157.0812,344.6359-147.7101 M589.2174-167.9005c0.3163,27.897-0.8156,55.8273,0.8156,83.6911
		c0.9654-8.2892-0.4161-17.0611,3.1125-24.8843c3.2625-8.1727,5.11-17.2608,10.9691-24.1186
		c5.3929-7.3071,14.1483-10.6694,22.0213-14.5644c5.7092-1.6978,11.8513-0.4994,17.7436-0.7491
		C625.437-154.3515,607.477-161.5421,589.2174-167.9005 M-318.9501-149.9072c3.3623,0.2996,6.9576-0.1831,10.1368,1.1818
		c10.7693,4.9769,22.554,10.6195,27.7139,22.0546c3.6286,9.1215,7.4736,18.2929,9.3878,27.947
		c-0.4161-22.6871-0.05-45.3743-0.1997-68.0614C-287.5909-161.1925-303.1207-155.1338-318.9501-149.9072 M172.0273-148.6755
		c-0.0167,161.8559-0.0167,323.7119,0,485.5677c61.0206,0,122.0244,0.0167,183.0283,0
		c0.0333-139.6848-0.0499-279.3696,0.05-419.0544C294.085-104.3832,233.0645-126.5044,172.0273-148.6755 M-36.6344-81.4131
		c-0.0333,139.4351,0,278.8702,0,418.3053c61.0539,0,122.091,0.0167,183.1449,0c-0.0166-161.6062,0.0167-323.2125-0.0166-484.8187
		C85.4567-125.7387,24.4029-103.6009-36.6344-81.4131 M-335.6284-139.2544c-7.2739,6.9409-7.0242,19.3748-1.3316,27.2146
		c4.128,3.6952,10.1701,3.1126,15.2468,2.2804c3.6785-3.3789,5.3763-8.0728,6.7079-12.7501
		c1.7477,0.5992,3.4622,1.2151,5.2099,1.831c-1.0819,6.0754-3.9116,11.485-8.5555,15.5964
		c-7.5402,2.1805-15.9625,1.498-22.3875-3.1958c-7.6234-9.2213-8.5056-24.052-0.6824-33.4065
		c-16.1124,6.2086-32.4577,11.7847-48.62,17.8767c0.0999,47.122-0.0499,94.2439,0.0666,141.3826
		c23.6692-8.6554,47.588-16.5951,71.0742-25.6999c-9.188-1.7144-20.5399-2.9129-25.2671-12.3006
		c-4.3943-9.2213-3.2624-21.1058,3.1459-29.162c6.425-5.0434,15.0138-4.9768,22.5872-2.8629
		c4.4109,4.2944,7.5735,9.5376,8.5722,15.6629c-1.5313,0.5826-3.0627,1.1651-4.5774,1.7477
		c-1.7644-4.6107-3.4788-9.3212-6.7745-13.1163c-5.2598-0.749-11.3852-0.9488-15.613,2.7464
		c-5.909,7.9729-6.2419,20.9727,1.6811,27.7638c6.8411,3.6786,14.9972,4.6606,22.6705,4.4109
		c8.3225-3.5953,17.3774-7.2406,23.0034-14.7142c3.5288-4.3443,5.2265-9.754,7.0575-14.9472
		c7.8398-18.9753,6.9909-40.2642,4.1113-60.2382c-2.2138-7.3238-4.9602-14.5144-7.7899-21.6218
		c-4.3776-10.0037-14.6309-15.2635-24.2184-19.1085C-318.8502-144.6308-328.1714-143.8817-335.6284-139.2544 M605.6293-126.571
		c-3.5287,6.0255-5.1432,12.8999-7.7732,19.3082c-2.7298,6.2918-2.4135,13.2494-3.1958,19.9241
		c-1.5813,11.2021,0.2996,22.504,1.5813,33.6395c4.3276,11.9178,6.9243,26.2991,18.5924,33.4564
		c7.0575,3.562,14.1649,9.1381,22.5706,7.4736c7.1907-1.032,16.3121-1.7644,20.1571-9.0049
		c3.9781-7.6068,2.53-17.1443-2.4136-23.9688c-4.1613-1.3149-8.5056-3.2291-12.9164-1.8809
		c-6.1753,0.8655-7.7066,8.0062-9.0882,12.9997c-1.598-0.5493-3.1793-1.0819-4.7438-1.6312
		c1.3981-5.4929,3.1458-11.302,7.9396-14.8141c7.1408-3.9449,15.4299-1.8143,22.3709,1.4981
		c6.2419,9.0882,8.5389,22.0213,2.3969,31.6921c-5.2598,8.6721-16.5451,9.1714-25.5168,10.3532
		c26.3324,9.3711,52.6648,18.7756,78.9972,28.1467c0.05-47.6213-0.0999-95.226,0.0832-142.8473
		c-19.0252-7.2572-38.2335-14.0317-57.3586-20.956c10.0702,9.471,9.0215,25.833,1.4481,36.5025
		c-5.2931,1.9142-10.7694,4.6772-16.5452,3.1792c-8.6554-0.2996-12.284-9.6874-13.7654-16.878
		c1.5146-0.4161,3.0294-0.8156,4.5774-1.2151c1.0486,4.4941,2.9794,8.722,5.9089,12.3173
		c6.3917,1.7311,15.2968,1.4481,18.5425-5.393c3.7451-7.7399,3.5621-18.8421-3.8116-24.4515
		c-7.457-3.7951-16.2123-5.0934-24.4681-4.128C620.3269-139.4875,610.8726-135.0932,605.6293-126.571 M380.689-134.6937
		c-0.0333,12.0676-0.1165,24.1352,0.0499,36.1862c10.7194,3.6952,21.3389,7.6567,32.0749,11.3852
		c-4.5108-3.2125-9.8206-5.0102-13.8153-8.8551C387.9128-105.8812,385.8989-121.5275,380.689-134.6937 M-71.7719-106.6802
		c-3.096,6.8411-8.8884,12.051-14.9805,16.1956c7.9396-3.1459,16.0457-5.8091,24.0354-8.8551
		c-0.0499-10.27,0.0832-20.5565-0.0999-30.8265C-66.2291-122.4929-68.2432-114.3036-71.7719-106.6802 M560.588-91.5832
		c-3.3124,8.1061-5.0601,17.161-10.7859,24.0354c-5.3763,7.4237-14.1816,10.7027-22.038,14.7308
		c-5.16,2.7464-11.3019,0.6492-16.7615,0.799c17.7768,6.3084,35.5038,12.7001,53.2807,18.9919
		c-0.3163-27.0481,0.8322-54.1295-0.8156-81.1443C562.5687-106.6469,563.7339-98.7072,560.588-91.5832 M-245.0629-100.6547
		c-0.2996,22.1545-0.0832,44.3256-0.1165,66.4801c16.2788-5.859,32.6908-11.3186,48.8198-17.5771
		c-4.2611-0.3496-8.9217,0.4993-12.7833-1.831c-7.0908-3.845-15.1969-6.5914-20.4733-12.9997
		C-238.3384-75.9868-239.9196-89.3361-245.0629-100.6547 M-245.246-5.6284c0.0999,114.168,0,228.3527,0.0499,342.5207
		c60.8208,0,121.6416,0.0167,182.4624,0c0.0167-136.2726,0-272.5451,0-408.8343C-123.5711-49.8375-184.4252-27.7996-245.246-5.6284
		 M380.5891-72.8409c0.1497,136.5722,0.0166,273.1443,0.0665,409.7332c61.2202,0.0167,122.4239,0,183.6443,0
		c0-114.3844,0.0166-228.7521,0-343.1365C503.0462-28.3988,441.8925-50.8196,380.5891-72.8409 M589.3173-23.9213
		c7.1907,2.347,14.2814,4.9436,21.3723,7.5735c-4.3278-4.7105-9.4543-9.0882-11.585-15.3134
		c-4.1446-11.3685-10.0703-22.6205-8.4723-35.1709C588.0522-52.6838,589.517-38.2193,589.3173-23.9213 M-271.8115-58.8258
		c-1.0154,8.1227-4.7105,15.5464-7.1906,23.2697c-2.2804,7.0741-7.1573,12.8333-12.334,17.9932
		c6.4416-2.4135,12.9165-4.7438,19.4247-6.9743C-271.8281-35.9723-271.9779-47.4074-271.8115-58.8258 M589.2174,2.8272
		c-0.0167,111.355,0,222.71,0,334.065c41.7955,0,83.5745,0.0167,125.3701,0c0.0333-96.1581-0.0333-192.3163,0.0167-288.4744
		C672.8419,33.1211,631.0129,18.0241,589.2174,2.8272 M-390.0075,46.9198c0,96.6575-0.0167,193.3149,0,289.9724
		c39.3654,0.0167,78.7308,0,118.0962,0c0.0666-110.9555-0.0666-221.9277,0.0666-332.8832
		C-311.2434,18.2738-350.6422,32.5552-390.0075,46.9198 M-471.052,113.9825c-0.0499,417.1568-0.0166,834.3136-0.0333,1251.4705
		c4.6273,0.1163,9.238,0.4161,13.8653,0.7656c0.0166-417.6562,0-835.2957,0-1252.9352
		C-461.8141,113.7661-466.4413,113.9825-471.052,113.9825 M-390.0075,368.0017c0,25.5334-0.0167,51.0668,0,76.6003
		c44.2757-0.0667,88.568,0.1497,132.8437-0.1165c15.0304-13.0664,30.3771-25.7831,45.5906-38.6331
		c6.8411-4.311,14.5144-7.2072,21.8882-10.453c17.0944-2.8962,34.5717-2.8795,51.7826-0.9987
		c32.2913,13.1163,60.4879,34.6882,93.1288,47.1053c6.9077,0.3329,13.8986-0.2829,20.7563-1.1318
		c12.6668-3.7285,19.2083-16.595,25.3836-27.1979c-1.9142-5.9756,0.1498-12.0843-0.1665-18.0931
		c-2.9295-7.4736-8.206-14.0484-14.7475-18.6258c-9.8039-2.5134-21.5552,0.9488-27.0814,9.754
		c0.6325,3.8283,1.2317,7.69,1.831,11.5516c-2.7298,0.2996-5.4762,0.6325-8.1894,0.9488
		c-0.8988-5.0102-1.6478-10.0536-2.3303-15.097c3.1293-3.3956,5.7592-7.3072,9.3878-10.1867
		c4.2278-2.1805,8.8385-3.4955,13.2327-5.3264C-147.8063,367.8353-268.8986,368.0517-390.0075,368.0017 M-11.4671,367.802
		c10.9192,6.3085,17.6104,17.2442,22.5207,28.4962c1.781-2.9461,3.4954-5.9089,5.06-8.955
		c3.7618-8.0894,10.6195-14.2148,17.5605-19.5745C18.627,368.1349,3.58,368.0517-11.4671,367.802 M50.1859,368.2181
		c4.2445,1.6479,8.7553,2.8296,12.7501,5.0934c3.4788,2.9461,6.1087,6.7412,9.2047,10.0702
		c-0.7823,5.0268-1.548,10.0703-2.4302,15.097c-2.6465-0.3828-5.2931-0.7657-7.923-1.1318
		c0.283-4.0281,1.9974-8.2393,1.0154-12.2008c-5.4263-8.9716-17.3441-10.8858-26.9316-9.2879
		c-6.7412,5.5261-11.8845,12.6169-15.2302,20.6731c3.1959,5.2598,1.0653,11.9012,1.2318,17.7435
		c3.8117,5.6926,7.2739,11.6515,11.7846,16.8281c5.0601,5.7925,11.1522,12.0178,19.4913,11.7514
		c69.4096,0.2164,138.8359-0.0166,208.2455,0.1165c5.4596,0.0667,11.4351-0.516,15.7129-4.311
		c8.0395-6.5581,13.9818-15.3134,19.175-24.2018c0.3163-6.0921,0.2663-12.2174,0.8655-18.2928
		c-2.297-8.2226-8.1227-14.6643-14.3313-20.2403c-10.1202-1.9808-21.8382,0.6658-27.9969,9.5043
		c0.5493,3.9449,1.1152,7.9064,1.6479,11.8679c-2.53,0.4161-5.0601,0.8655-7.5735,1.315
		c-1.0986-5.0435-1.9641-10.1035-2.5966-15.2136c2.9295-3.3623,5.5261-7.0575,8.9217-9.9537
		c3.9283-2.3969,8.4557-3.5287,12.6502-5.3264C195.3136,367.9352,122.7415,367.7521,50.1859,368.2181 M284.9303,367.8187
		c4.927,3.7784,9.5709,8.0562,13.3826,12.9831c3.2957,4.9935,5.6426,10.5363,8.7054,15.663
		c5.343-11.1355,11.9178-22.2044,22.8535-28.6794C314.8913,368.1016,299.9108,368.035,284.9303,367.8187 M344.6026,368.3013
		c3.5287,1.2484,7.124,2.3969,10.6194,3.8117c5.6095,1.9142,8.3892,7.6234,12.3174,11.6682
		c-0.8156,4.9436-1.5813,9.8871-2.297,14.8473c-2.6465-0.2829-5.2931-0.5826-7.9064-0.8655
		c0.566-3.7785,1.2984-7.5402,1.4814-11.3519c-2.5633-6.5415-9.7873-8.9384-16.0125-10.5197
		c-5.11-0.233-11.5017-0.9821-15.0804,3.5121c-5.1434,4.4109-8.3392,10.4697-11.1855,16.4952
		c2.8296,5.859,0.3495,12.3506,0.8655,18.5092c5.9922,9.8372,12.0843,21.2057,23.4028,25.6832
		c7.224,1.3982,14.7142,1.4481,22.0713,1.5146c27.1979-10.2033,51.2499-26.8983,77.1828-39.7649
		c7.4237-2.8629,14.0983-8.5888,22.4874-8.0395c14.9972-1.3483,30.1607-0.8489,45.008,1.5813
		c7.0908,3.0294,14.3148,6.0088,21.056,9.7706c13.7488,11.252,27.1979,22.9035,40.8134,34.3386
		c2.8964,2.2304,5.5428,5.8424,9.6874,5.1432c45.1578-0.0666,90.3157-0.0166,135.4736-0.0332c0.0167-25.5501,0-51.1002,0-76.6336
		c-83.4247,0-166.8328,0-250.2574,0C424.4153,368.1848,384.5006,367.519,344.6026,368.3013 M-186.6224,402.873
		c-6.8578,2.8463-13.9485,5.5428-20.1738,9.6541c-15.6962,13.033-31.1428,26.3989-46.8557,39.4153
		c-2.3802-0.1332-4.7605-0.2496-7.1407-0.3661c0.2164,1.1651,0.6325,3.4954,0.8489,4.6606c27.5807,0,55.1781,0.0832,82.7589-0.05
		c2.6965-4.594,6.6913-8.8717,12.2341-9.6541c9.2047-2.1805,19.1584,5.0268,20.0073,14.4312
		c1.4315,9.5043-6.9743,18.8755-16.5618,18.5592c-6.8078,0.3496-12.6169-4.1779-15.6629-9.9537
		c-25.3004-0.1997-50.5841,0.0332-75.8679-0.1165c-2.7464,0.4994-7.1574-1.315-8.0395,2.6299
		c2.3303,0.0832,4.6939,0.1664,7.0408,0.2496c16.079,13.2661,31.7753,26.9816,47.9043,40.1977
		c6.3251,3.7452,13.1828,6.7245,20.0572,9.3712c15.6296,2.1472,31.7254,3.0294,47.3217,0.2164
		c31.6421-13.882,59.872-34.6217,92.2798-46.889c6.5748-0.4328,13.1329,0.749,19.7077,0.8656
		c6.6247-0.1664,12.7833,3.279,17.86,7.224c8.9384,9.1713,16.8947,19.9407,20.49,32.3745
		c4.0947-13.9485,13.3327-26.0494,24.1519-35.5704c4.2278-4.078,10.1201-5.7092,15.8959-5.576
		c71.5569,0.0167,143.1303,0.0499,214.7038-0.0167c4.8936,0.0665,10.2367,0.6492,14.1149,3.9782
		c11.9178,9.6707,21.7717,22.4707,26.4156,37.2349c1.7977-5.3264,3.562-10.7694,6.9909-15.2968
		c6.6081-10.22,14.5311-21.2889,27.148-24.052c7.873-0.4161,15.7462-1.2817,23.6193-1.1818
		c32.7906,12.3173,61.2535,33.573,93.3784,47.2718c15.663,2.0308,31.6089,1.7977,47.1886-0.699
		c6.8577-2.8297,13.8985-5.5927,20.1571-9.6208c12.4005-10.3365,24.7178-20.8062,37.0518-31.2426
		c5.0601-4.0947,9.7206-10.2367,17.0611-8.7886c-0.05-0.6492-0.1664-1.9641-0.233-2.6299
		c-27.5141,0.0167-55.0283-0.0665-82.5425,0.05c-3.379,5.4263-8.8053,10.2699-15.613,9.9703
		c-10.2534,0.5992-19.1584-9.987-16.7116-19.974c1.1485-8.5555,10.0869-14.4812,18.4427-13.2161
		c6.1587,0.3329,10.6861,5.0268,13.882,9.8705c27.3477,0,54.7288,0.2497,82.0598-0.1165c0.3661-1.0818,1.0653-3.2458,1.4148-4.3277
		c-2.7464,0-5.4429,0.0333-8.156,0.0666c-14.0651-12.0343-28.3132-23.8523-42.3782-35.8699
		c-6.8744-6.4084-15.9626-9.5376-24.4682-13.1163c-14.0816-2.3802-28.4629-2.7298-42.6611-1.2816
		c-7.873,0.1831-14.1149,5.6093-21.1724,8.3724c-25.5667,13.0996-49.6521,29.2286-76.617,39.4653
		c-11.8179-0.8656-24.9675,1.2317-35.1043-6.2918c-10.3365-8.5722-16.9779-20.5732-23.1865-32.2247
		c-5.4762,13.4991-14.3313,25.7997-25.6666,34.9878c-4.4109,3.7451-10.5529,4.2111-16.0957,4.311
		c-71.0242-0.0832-142.0484-0.0167-213.0726-0.0333c-4.6273-0.2164-9.6374-0.7157-13.3825-3.6952
		c-12.0343-9.188-20.7896-22.0879-26.7818-35.8533c-4.6938,11.7014-11.7846,22.5207-20.9893,31.1761
		c-5.343,4.0614-11.818,7.2905-18.709,6.8577c-8.439-0.0999-17.5938,2.8629-25.2172-2.0806
		c-29.6947-12.3339-55.9771-31.4258-85.4887-44.1093C-154.6973,399.6439-170.9095,400.4262-186.6224,402.873 M-390.0075,480.1224
		c0,25.1173,0,50.2512,0,75.3686c120.0437,0,240.0874,0.0832,360.131-0.05c-2.1638-0.8655-4.311-1.6977-6.4582-2.5466
		c-6.0255-1.8643-9.0882-7.8065-13.0663-12.1841c0.8156-4.9602,1.5812-9.9038,2.4468-14.8473
		c2.6965,0.2996,5.3763,0.6324,8.0894,0.982c-0.5826,3.7784-1.1651,7.5734-1.8143,11.3685
		c5.5594,8.9717,17.5272,12.5503,27.4642,9.754c6.0255-4.3943,10.8692-10.3531,13.9652-17.161
		c-1.0486-6.4749,1.0653-12.9332,0.5992-19.3248c-4.0614-8.2226-9.5043-15.896-16.0291-22.3542
		c-8.2226-7.2406-19.9906-5.676-30.1108-6.0588c-32.3745,12.5004-60.5711,33.5562-92.5129,46.9721
		c-17.3773,2.1473-35.1376,2.1473-52.4151-0.8156c-9.1714-4.2778-19.2916-7.3237-26.7319-14.4811
		c-13.5324-11.6182-27.3144-22.9368-40.7969-34.6216C-301.5061,480.0892-345.7485,480.0892-390.0075,480.1224 M575.1523,480.139
		c-14.5643,12.6668-29.4782,24.9176-44.1425,37.4346c-7.1074,5.16-15.5464,8.1727-23.5527,11.6016
		c-17.1943,2.9794-34.9045,3.0959-52.182,0.799c-31.7753-13.6988-60.0053-34.5717-92.363-46.9888
		c-10.4864,0.6325-23.1199-1.3816-31.1096,7.1073c-6.3417,6.7912-11.9012,14.581-15.5298,23.1699
		c3.1625,5.3763,0.6325,11.6515,1.3815,17.4606c2.4801,7.1074,7.8398,12.5336,13.2827,17.4939
		c9.7373,1.7976,21.9048,0.0999,27.4642-9.0549c1.1152-3.9283-0.8656-8.1727-1.1652-12.1675
		c2.6965-0.3496,5.3763-0.6825,8.0894-0.9821c0.5993,4.8438,1.6978,9.6707,1.9309,14.5811
		c-2.3969,3.6786-5.3098,7.0574-8.4724,10.1035c-3.3955,2.0306-7.2572,3.1459-10.8691,4.7438
		c122.2242,0.1498,244.4484,0.0333,366.6725,0.05c0-25.1174,0-50.2513,0-75.3686
		C668.1147,480.1057,621.6252,480.0558,575.1523,480.139 M41.3475,485.8983c-9.1048,7.7565-16.3287,17.8102-20.9727,28.7958
		c0.5327,0.0999,1.5813,0.2829,2.1139,0.3661c-0.1831,5.2432-0.6492,10.5197-0.1665,15.7795
		c2.2138,7.3404,7.9064,12.7667,13.316,17.8767c10.1368,1.9141,21.988-0.5992,27.8138-9.8206
		c-0.5659-3.795-1.1485-7.5901-1.7311-11.3685c2.6799-0.516,5.3597-1.0154,8.0562-1.4814
		c0.8323,5.0102,1.5979,10.0535,2.3968,15.0804c-3.0127,3.3456-5.6593,7.0408-8.9883,10.1035
		c-3.0793,1.781-6.5415,2.7463-9.8372,4.0614c70.6414,0.4993,141.2994,0.1165,211.9407,0.183
		c-3.4788-1.4814-7.3072-2.3636-10.4031-4.5774c-3.2624-2.8962-5.8091-6.4416-8.6388-9.7207
		c0.7823-5.0267,1.5646-10.0369,2.4135-15.0304c2.5966,0.3661,5.2265,0.7491,7.8398,1.1818
		c-0.5826,3.8284-1.1652,7.6901-1.781,11.535c6.0255,9.1381,17.7602,11.7014,27.9802,9.8871
		c5.7592-4.9769,10.7527-10.8359,13.782-17.8768c-0.3329-5.9755,0.0499-11.951,1.1152-17.8101
		c-5.1267-10.27-11.8512-19.974-20.7563-27.3145c-3.7451-3.329-8.9717-3.9449-13.7654-3.9948
		c-69.393,0.0332-138.7859,0.0332-208.1623,0C50.1193,481.7203,44.9594,482.4527,41.3475,485.8983 M10.9371,528.8256
		c-2.7963,4.9437-4.9769,10.2368-8.1228,14.9805c-3.4122,4.2611-7.6234,7.7732-11.3852,11.718
		c13.2827-0.0499,26.5654,0.0167,39.8481-0.0332c-3.1625-3.2458-6.4749-6.3584-9.6042-9.6375
		C16.9958,540.8932,15.3813,533.9357,10.9371,528.8256 M296.5152,546.1863c-2.9795,3.1959-6.2253,6.1754-9.2879,9.3213
		c13.2494,0,26.4988,0,39.7316,0c-3.7285-3.9782-8.0063-7.457-11.3519-11.7847c-3.0793-4.7771-5.3763-10.0203-8.1726-14.9639
		C302.574,533.7526,301.2257,541.0597,296.5152,546.1863 M-314.0065,586.6337c0,338.8255,0,677.6344,0,1016.46
		c14.0317,0.0166,28.0801,0.0166,42.1118,0c0-338.8256,0.0167-677.6345,0-1016.46
		C-285.9264,586.6337-299.9748,586.6171-314.0065,586.6337 M-174.1886,586.6337c0,338.8255,0,677.6344,0,1016.46
		c14.2314,0,28.4629,0,42.711,0c0.0167-338.8256,0.0167-677.651-0.0166-1016.46
		C-145.7256,586.6337-159.9571,586.6171-174.1886,586.6337 M-36.6177,586.6337c-0.0666,338.809-0.0333,677.6344,0,1016.46
		c14.2314,0,28.4629,0.0166,42.6944-0.0167c0-338.8088,0-677.6177,0-1016.4432C-8.1547,586.6171-22.3862,586.6337-36.6177,586.6337
		 M103.2003,586.6337c-0.0499,338.809-0.0333,677.6344,0,1016.46c14.4312,0,28.8624,0,43.2936,0
		c0.0166-338.8256,0.0333-677.651-0.0167-1016.46C132.046,586.6337,117.6148,586.6337,103.2003,586.6337 M-390.0075,586.6503
		c0,338.8088,0,677.6343,0,1016.4433c16.4286,0,32.8739,0,49.3025,0c0.0166-338.809,0-677.6345,0-1016.4433
		C-357.1337,586.6171-373.5789,586.6171-390.0075,586.6503 M-245.1961,586.6503c0,338.8088-0.0167,677.6177,0,1016.4433
		c14.7641,0,29.5282,0,44.309,0c0.0167-338.8256,0-677.6345,0-1016.4433C-215.6512,586.6171-230.432,586.6171-245.1961,586.6503
		 M-105.3782,586.6503c0,338.8088-0.0167,677.6343,0,1016.4433c14.2148,0,28.4296,0,42.6445,0
		c0.0167-338.8256,0-677.6345,0-1016.4433C-76.9485,586.6171-91.1633,586.6171-105.3782,586.6503 M32.2094,586.6337
		c0,338.8255-0.0167,677.6344,0,1016.46c14.9638,0,29.9111,0,44.8749,0c0.0167-338.809,0-677.6345,0-1016.4433
		C62.1204,586.6171,47.1732,586.6337,32.2094,586.6337 M172.0273,586.6337c0,338.8255-0.0167,677.651,0,1016.46
		c14.3979,0,28.8125,0,43.2104,0c0.0167-338.809,0.0167-677.6345,0-1016.46C200.8231,586.6171,186.4252,586.6337,172.0273,586.6337
		 M240.8377,586.6503c0,338.8088-0.0167,677.6177,0,1016.4433c15.1636,0,30.3272,0,45.4908,0c0.0167-338.8256,0-677.6345,0-1016.46
		C271.1649,586.6171,256.0013,586.6171,240.8377,586.6503 M311.8452,586.6337c0,338.8255-0.0167,677.6344,0,1016.46
		c14.3979,0,28.8125,0,43.2104,0c0.0167-338.809,0-677.6345,0-1016.46C340.6411,586.6171,326.2432,586.6337,311.8452,586.6337
		 M380.6556,586.6503c0,338.8088-0.0166,677.6177,0,1016.4433c14.6143,0,29.2119,0,43.8263,0c0.0167-338.8256,0-677.6345,0-1016.46
		C409.8842,586.6171,395.2699,586.6171,380.6556,586.6503 M449.3828,586.6337c0,338.8255-0.0166,677.6344,0.0333,1016.46
		c14.5977,0,29.1953,0,43.793,0c0.0166-338.809,0-677.6345,0-1016.4433C478.5948,586.6171,463.9972,586.6171,449.3828,586.6337
		 M518.8091,586.6503c0,338.8088-0.0167,677.6177,0,1016.4433c15.1636,0,30.3271,0,45.4908,0c0.0166-338.8256,0-677.6345,0-1016.46
		C549.1362,586.6171,533.9727,586.6171,518.8091,586.6503 M589.2007,586.6337c0,338.8255-0.0167,677.6344,0.0333,1016.46
		c14.5977,0,29.1953,0,43.793,0c0.0167-338.809,0-677.6345,0-1016.4433C618.4128,586.6171,603.8151,586.6171,589.2007,586.6337
		 M658.0611,586.6337c0,338.8255-0.0166,677.6344,0,1016.46c18.8421,0,37.6843,0,56.5264,0c0.0167-338.809,0-677.6345,0-1016.4433
		C695.7454,586.6171,676.9032,586.6337,658.0611,586.6337z"/>
	<path fill="#1D1B19" d="M1381.153-399.2992c8.1394,0,16.2788,0,24.4181-0.05c0.9155,17.9933,0.1832,36.0364,0.3997,54.0463
		c61.0204,21.7384,122.041,43.5433,183.0449,65.3649c0.2164-19.8908-0.4161-39.8315,0.2664-59.7056
		c0.5492-0.5826,1.6312-1.7311,2.1804-2.297c7.7899-0.7657,15.663-0.1498,23.5027-0.1332
		c0.4329,23.8356,0.0333,47.6713,0.1998,71.5236c60.8708,21.5885,121.6582,43.4268,182.479,65.0985
		c0.0333-20.8062,0.05-41.6291-0.0333-62.452c0.2997-2.53-0.6492-6.2585,2.4137-7.4237c6.3916-0.7157,12.8832-0.3495,19.3248-0.3163
		c1.8641-0.233,4.7104,0.3329,4.3442,2.8962c0.2164,25.5501,0,51.1168,0.0831,76.6668
		c39.0326,13.832,77.9819,27.9137,117.031,41.6957c4.7771-5.4096,11.5515-9.1215,18.5259-10.736
		c16.3787-0.3662,32.7574,0.1165,49.1527-0.1831c0.5992,2.9628,1.1652,5.9422,1.1985,8.9716
		c-0.1332,43.8263-0.0167,87.6692-0.0667,131.5121c4.4109,0,8.8219,0.0166,13.2662,0.0166
		c0.1331-15.0138-0.2498-30.0442,0.1163-45.058c-0.4661-3.2291,2.9629-4.4609,5.2932-5.6759
		c6.4083-3.1958,13.7986-1.8143,20.7063-2.014v1747.1583c-5.6926-0.0167-11.3518-0.0167-17.0111,0
		c-3.0461-3.0293-6.0588-6.0421-9.0884-9.0548c-0.3994-11.0856,1.0156-22.2877-1.215-33.2235
		c-0.849-5.3263-0.5326-10.7026-0.516-16.0458c0.0831-35.2374-0.0999-70.4749,0.0831-105.6958
		c-3.9115-0.1997-7.7563-0.3828-11.6348-0.6656c0.0166,37.7174,0,75.4518,0.0166,113.1693
		c-0.2664,17.6604,0.5494,35.3373-0.4825,52.981c-15.5632,0.333-31.1429,0.2664-46.6893,0.1167
		c-17.7102-1.8145-35.537-0.6493-53.2806-0.9656c-355.1042,0-710.2086,0-1065.3129-0.0167
		c-19.7076,1.9642-39.5319,0.6158-59.2894,1.1986c-0.6326-2.7798-1.2151-5.6095-1.2151-8.4391
		c0.0832-608.4244,0.0333-1216.8656,0.0167-1825.3066c0.4993-0.7157,1.498-2.1306,1.9974-2.8463
		c17.111-0.0999,34.2221,0.0666,51.3331-0.0832c1.1319,4.7105,1.2817,9.5709,1.2151,14.3979
		c41.779-14.9139,83.6078-29.7113,125.3202-44.825c-0.2164-24.052,0.0499-48.1207-0.1498-72.1727
		c0.1498-2.4968-0.3162-5.2432,0.9655-7.5069c7.5236-0.4827,15.1303-0.5659,22.6705-0.0167
		c2.114,1.1652,1.1818,3.8783,1.5146,5.8424c-0.0999,21.6884-0.0332,43.3768-0.0499,65.0653
		c61.2037-21.8549,122.374-43.793,183.6109-65.5313c0.0166-23.819,0.0833-47.6213-0.0333-71.4403
		c8.0729-1.1485,16.2955-1.1485,24.4183-0.3995c1.3813,20.8728,0.1163,41.9121,0.5825,62.8348
		c61.2036-21.8382,122.457-43.5766,183.611-65.548C1380.8365-362.8134,1379.4218-381.1395,1381.153-399.2992 M1324.4933-298.9632
		c7.2572-0.4161,15.4133-2.9961,22.2377,0.8489c6.425,3.4622,13.649,6.142,18.4595,11.9012
		c8.5389,8.8219,9.6373,21.7217,15.047,32.2913c0.333-21.8715,0.0667-43.7431,0.1499-65.6146
		C1361.8115-312.5288,1342.9362-306.3036,1324.4933-298.9632 M1406.0205-318.5543c0.0499,23.0866-0.2996,46.1732,0.183,69.2432
		c2.7465-7.9729,5.443-15.9459,8.3892-23.8523c3.5454-9.8871,11.5518-17.91,21.239-21.8882
		c6.6914-3.7451,16.1125-8.2726,23.0033-2.813l1.0653-3.9449c-0.5492,0.4161-1.6644,1.2484-2.2136,1.6645
		C1440.276-305.771,1423.2646-312.5122,1406.0205-318.5543 M1237.7729-267.554c10.7526,0.3495,24.6678,0.233,31.1927,10.503
		c6.1586,9.7872,3.6287,22.6705-2.8796,31.6421c-3.6785,1.3316-7.2738,2.9628-11.1189,3.7285
		c-3.7285-0.0832-7.3569-0.9654-11.0023-1.6146c-4.078-4.2778-7.5236-9.4877-7.6899-15.613
		c1.0653-0.4661,3.1959-1.4148,4.2612-1.8809c1.3314,4.6772,2.9128,9.4211,6.5746,12.8333
		c5.2932,1.2317,11.069,1.2484,15.713-1.9808c5.1266-6.0421,5.3263-15.0637,2.8296-22.271
		c-4.0115-8.2892-14.2316-9.2213-22.321-10.0369c-7.3071-1.3316-13.3492,3.5121-19.4579,6.5914
		c-7.7067,3.8949-12.5004,11.6515-14.9971,19.6577c-1.9976,6.6081-5.4929,12.8832-5.7592,19.9074
		c-0.5828,8.7054-2.1139,17.444-1.0486,26.1992c0.9819,7.6068,0.4492,15.5964,3.7284,22.7371
		c3.8115,10.2533,6.6912,22.3043,16.9279,28.1966c7.0077,3.5121,13.9652,9.3212,22.3542,7.457
		c7.3571-1.0653,16.7615-1.8642,20.4402-9.471c3.0959-7.6567,1.8309-16.5784-2.8632-23.3196
		c-4.9102-1.6479-10.3198-3.8117-15.3466-1.315c-4.6938,2.3802-5.2433,8.1394-6.9077,12.5503
		c-1.1151-0.4161-3.3623-1.2484-4.4941-1.6479c1.0986-6.1586,4.0447-11.6349,8.672-15.846
		c7.3239-2.4967,14.7144-1.3316,21.5885,1.8643c8.2061,10.7027,8.9386,27.3643-1.5145,36.8853
		c25.3503-9.0715,50.7339-18.0931,76.0842-27.1813c-11.1854-0.0666-25.6998-0.0832-32.0583-11.1022
		c-5.4429-9.8039-2.996-22.0879,3.3623-30.8765c6.8079-3.3456,14.3147-4.4442,21.7052-2.3969
		c4.5607,4.1945,7.4236,9.6374,8.672,15.6796c-1.7145,0.5992-3.3956,1.1984-5.0768,1.781
		c-1.1151-4.5108-2.9626-8.8052-5.9756-12.3672c-5.3596-1.3982-10.8192-0.9987-15.8794,1.1984
		c-6.0752,8.206-6.7244,21.7217,1.6646,28.5961c7.4238,3.7285,16.1124,5.0434,24.3683,4.0947
		c9.6376-4.0448,20.3237-8.7553,24.8011-18.9753c2.9795-7.407,5.8923-14.8973,8.0894-22.5706
		c0.9656-10.5529,2.8962-21.2057,1.3983-31.8086c-0.8822-6.658-0.2664-13.6322-2.9795-19.924
		c-3.4456-8.4224-5.1432-18.0099-11.6515-24.7678c-4.694-5.2265-11.4185-7.8065-17.4773-11.019
		c-4.827-2.7631-10.5364-1.315-15.6963-0.5992c-5.5094,1.0985-11.9843,2.4135-14.9637,7.7566
		c-3.7618,7.7399-2.5134,17.3441,2.63,24.1852c4.5273,1.7144,9.4708,3.4955,14.298,1.6812
		c5.3263-1.5979,5.8923-7.973,7.4736-12.4504c1.5978,0.3329,3.229,0.6491,4.8934,0.9987
		c-1.4481,5.9922-3.5951,12.3506-9.1213,15.7961c-6.8245,3.1292-14.8972,1.7977-21.1558-2.014
		c-9.1047-10.4031-8.2725-27.3145,1.498-37.0185C1288.2405-286.0966,1262.9402-276.9918,1237.7729-267.554 M1439.5935-291.3897
		c-4.9435,2.6299-10.3698,4.8437-14.0319,9.238c-6.5747,7.4236-8.4055,17.5272-11.9843,26.4988
		c-3.3956,16.8447-3.3124,34.3386-0.3995,51.2499c2.6798,7.6567,5.0103,15.5298,8.672,22.8203
		c4.5275,8.4057,13.416,12.6003,21.6052,16.6117c4.5774,2.5301,10.0037,1.2817,14.9307,0.6325
		c5.3097-1.1152,11.8013-1.8476,14.9305-6.9576c4.5607-7.3072,3.5953-17.3607-1.3484-24.2185
		c-4.6438-3.5287-11.4017-4.7105-16.5616-1.6478c-3.8949,2.5467-4.2112,7.5735-5.5927,11.6015
		c-1.032-0.233-3.1293-0.7323-4.178-0.9654c-0.8156-6.5249,3.7784-11.8346,7.9397-16.2455
		c7.3569-2.0806,15.2966-1.9475,21.7882,2.53c6.9077,8.3059,8.3392,21.2057,2.8296,30.5768
		c-5.5927,10.0369-18.709,10.4031-28.7791,11.3685c23.3695,8.2226,46.6891,16.5951,70.0421,24.9176
		c-10.1201-9.4044-8.4723-25.5501-0.9821-36.0364c7.0074-3.1626,15.2302-5.6926,22.4874-1.7977
		c4.9435,3.5953,7.0242,9.4543,8.1061,15.2468c-1.7145,0.466-3.4122,0.9487-5.0601,1.4315
		c-1.3815-4.2611-2.3801-9.1215-6.2086-11.9345c-5.0602-2.6632-10.736-0.982-15.7294,0.8323
		c-5.7261,8.4057-6.6249,21.5553,1.8475,28.4629c7.2405,3.8284,15.9292,5.16,24.0519,4.4276
		c5.7925-2.3303,11.3851-5.3098,16.645-8.722c9.4545-7.4736,11.5682-19.8908,15.7628-30.4936
		c3.3123-16.9779,3.2291-34.6049,0.0499-51.5828c-4.3444-11.4185-6.8577-25.1506-18.0265-32.1248
		c-7.0741-3.7118-14.2648-9.1714-22.7205-7.6567c-7.1573,0.8822-16.1788,1.6146-19.9906,8.7719
		c-3.2791,7.174-2.6798,16.4785,2.2471,22.787c4.3442,3.9615,10.7361,3.7285,16.1624,2.7464
		c5.3596-3.1126,2.7797-14.5977,10.8857-12.0843c-0.7157,6.7912-4.0115,12.7501-9.3379,16.9779
		c-7.2572,1.9641-14.5643,0.8655-21.239-2.3802c-6.8243-9.5542-8.855-24.0021-0.8489-33.4564
		c5.6427-7.3571,15.8293-7.5735,24.1686-9.2213c-22.3376-8.4057-44.8915-16.2122-67.2291-24.6512
		c9.5875,9.5043,9.1047,26.1992,0.3496,36.0697c-6.4252,3.9948-14.0485,4.5274-21.239,2.5633
		c-5.0269-3.9449-7.6235-9.7373-8.7552-15.896c1.6978-0.516,3.4287-0.9987,5.1765-1.4814c1.2317,4.2112,1.9474,9.188,6.0255,11.7514
		c5.1266,3.0127,11.0522,1.1485,16.0956-1.0819c5.4929-8.5722,6.3418-22.4541-3.1624-28.5794
		C1459.917-294.2693,1448.4818-297.0157,1439.5935-291.3897 M1196.7764-252.8732c0.1331,16.362-0.5659,32.774,0.8156,49.1027
		c0.799-7.4736-0.3495-15.33,2.6465-22.4208c3.9117-9.5542,5.8091-20.5066,13.5824-27.897
		c4.2612-5.1433,10.6694-7.4403,16.3785-10.4864C1218.8477-261.3288,1207.9617-256.6682,1196.7764-252.8732 M1566.3951-260.5132
		c4.1613,4.4442,9.1215,8.5722,11.5349,14.348c2.6465,5.9589,4.5607,12.2008,6.9243,18.2596
		c2.7299,6.9243,2.1471,14.4978,3.2124,21.755c1.365,8.7886-0.5159,17.5605-0.9987,26.349
		c-0.2498,8.489-4.3777,16.1124-6.9408,24.0354c-2.3804,7.2739-6.9578,13.7321-12.9332,18.4926
		c-4.5276,2.9295-9.4377,5.2099-14.1982,7.6733c-5.5593,3.3456-12.2507,1.9142-18.3595,2.3137
		c18.476,5.1599,36.2528,12.567,54.396,18.7922c-0.0834-47.8876,0.1163-95.7753-0.05-143.6629
		C1581.4421-254.9205,1573.8354-257.5338,1566.3951-260.5132 M1122.6229-225.8583c10.5029-1.8809,19.1917,4.6772,27.8303,9.4044
		c11.1189,7.5402,14.2482,21.2057,18.5592,33.0569c2.2471,6.1753,1.3317,12.8666,1.9641,19.3082
		c1.7145-26.4988,0.4994-53.0809,0.8489-79.613C1155.3802-237.876,1138.9683-231.9338,1122.6229-225.8583 M1615.0317-177.8043
		c5.1433-13.3493,7.7067-29.162,20.1404-38.0172c8.6387-4.9436,17.6104-11.1355,28.1135-9.2879
		c-15.9625-5.9922-32.0583-11.6681-48.0874-17.4606C1615.0151-220.9814,1615.3146-199.3928,1615.0317-177.8043 M1103.3979-211.1608
		c-3.2791,7.2073-2.4302,16.412,2.3635,22.7703c4.5109,3.845,10.8527,3.4455,16.3621,2.5633
		c3.2623-3.5287,4.7104-8.1061,6.375-12.517c1.1152,0.3163,3.3623,0.9654,4.4775,1.2817
		c-1.365,6.3417-4.2611,12.2008-9.4377,16.2621c-7.124,1.781-14.2981,0.749-20.8562-2.4135
		c-7.8397-10.1202-8.8717-26.0494,0.3662-35.6203c-23.6526,8.4057-47.0387,17.627-70.9409,25.3337
		c10.0536,1.6478,22.7537,1.9641,28.4629,11.9678c4.9436,9.6541,3.2291,22.1711-3.5454,30.5602
		c-6.3749,4.1279-14.1316,4.6439-21.3389,2.6465c-4.7438-4.1113-7.5901-9.6375-8.5887-15.7961
		c1.4481-0.6325,2.9128-1.265,4.3943-1.9142c1.2982,4.8104,3.2291,9.4377,6.8243,12.9997
		c5.443,1.0653,11.3519,0.8988,16.0126-2.4801c5.5427-7.8398,5.8257-20.0572-1.3317-27.0314
		c-5.6593-3.6952-12.6334-4.6107-19.2416-4.877c-7.6566-0.9654-13.9984,4.2112-20.4567,7.4403
		c-11.5017,7.0741-13.9153,21.2224-18.3928,32.8905c-2.6965,16.7449-3.0128,34.0057,0.4327,50.6507
		c4.4277,11.3519,6.8412,25.0341,18.0266,31.9584c6.3251,3.3623,12.6669,8.4224,20.2903,7.5402
		c7.9896-0.4494,18.0432-0.9487,22.6538-8.6554c3.3956-7.3072,2.6798-16.5951-2.1971-23.07
		c-4.4442-3.7618-11.0688-4.0614-16.3953-2.1306c-3.9282,2.9462-4.7605,8.0562-6.2919,12.4172
		c-1.4647-0.5992-2.9294-1.1984-4.361-1.781c1.3982-6.1753,3.795-12.9664,9.9038-15.8793
		c6.8079-2.5134,14.1482-0.9987,20.2568,2.6133c8.4224,10.1368,8.5555,26.7485-1.2317,36.0364
		c25.134-8.722,50.0848-17.9766,75.2188-26.6819c-11.1854-0.4161-25.55-0.6492-31.8917-11.6348
		c-5.2266-9.9204-2.913-22.3043,3.7284-31.0096c6.6747-2.6965,14.0151-4.6606,21.0227-1.7477
		c5.4263,3.562,7.7233,9.8871,8.672,16.0291c-1.6146,0.2497-3.2125,0.516-4.7937,0.7657
		c-0.9822-4.6939-2.9128-9.1048-6.4916-12.3839c-5.3431-1.0154-10.686-0.3329-15.663,1.7644
		c-5.576,8.3724-6.5581,21.3722,1.7976,28.2965c5.3431,3.1459,11.6682,3.8616,17.7103,4.6606
		c7.8065,1.2816,14.248-4.3776,20.9061-7.457c10.4031-5.7924,13.1329-17.9766,17.0112-28.2466
		c3.0959-7.2239,2.5133-15.2302,3.5786-22.8536c1.1151-8.3724-0.5493-16.7116-1.0487-25.0507
		c-0.2662-7.5901-4.078-14.3313-6.2252-21.4554c-2.6133-8.3058-8.0228-16.129-16.079-19.8908
		c-5.7759-2.8463-11.5516-6.9243-18.3428-5.8424C1117.3796-219.4167,1107.6425-218.7676,1103.3979-211.1608 M1648.4049-217.386
		c-5.0103,2.6133-10.5529,4.6939-14.2981,9.1048c-6.3416,6.375-7.7732,15.5963-11.202,23.5693
		c-2.8462,6.2752-2.5801,13.2494-3.3456,19.9573c-1.3317,11.2187,0.0667,22.554,1.498,33.6895
		c2.4801,7.7732,5.1432,15.5464,8.5056,22.9867c4.8768,9.8871,15.4299,14.4811,25.0007,18.6091
		c7.74,0.7657,15.9791-0.3496,23.0533-3.7618c7.4236-5.2765,7.7566-16.129,4.6771-23.9355
		c-2.4468-7.0575-11.8512-8.9217-18.0764-6.2086c-4.311,2.5467-4.9269,7.8398-6.3251,12.1841
		c-1.7311-0.4994-3.429-1.0153-5.1101-1.5147c1.2317-6.0588,4.1946-11.4517,8.7554-15.6296
		c3.6453-0.6492,7.2904-1.498,11.0522-1.6645c3.8451,0.8489,7.4902,2.4468,11.202,3.8284
		c5.9091,8.7386,8.4059,20.8728,2.8464,30.3605c-5.6593,10.2367-18.8589,11.1688-29.262,11.7181
		c23.7357,8.3724,47.4049,16.9113,71.124,25.367c-9.5709-9.3711-7.9231-25.2505-0.2662-35.2707
		c3.7451-1.3316,7.407-2.9795,11.3352-3.8616c3.7118,0.0499,7.3738,0.9654,11.0522,1.6146
		c4.3943,4.1446,7.1241,9.5209,8.3225,15.4299c-1.8643,0.4494-3.7118,0.8988-5.5261,1.3316
		c-1.3317-4.2112-2.2472-9.1547-6.3751-11.5849c-4.8602-2.6299-10.3865-1.0653-15.1636,0.8156
		c-5.6593,8.2892-6.708,21.2723,1.4648,28.3131c7.2239,4.1446,16.0458,5.2432,24.2518,4.7105
		c10.17-4.078,21.0226-9.6874,25.4-20.4567c3.4956-9.9204,8.6555-19.6411,8.5555-30.427
		c1.981-12.6502,0.4662-25.3836-0.9486-37.9839c-2.6465-7.7233-5.1101-15.5464-8.5056-22.9534
		c-4.927-10.1534-15.8627-14.864-25.7166-18.8088c-8.0562-0.4161-16.8945,0.2663-23.8022,4.7771
		c-7.4238,7.3571-6.0754,19.6411-0.5494,27.7639c4.927,2.0973,10.1868,3.0127,15.5132,1.8809
		c3.2958-3.6619,4.9602-8.3225,6.5747-12.8999c1.132,0.2996,3.429,0.9155,4.5774,1.2317
		c-0.7156,6.4749-3.9949,12.0676-8.9717,16.2122c-7.2405,1.9308-15.3132,1.8143-21.5885-2.6466
		c-8.4889-10.0369-8.8217-27.2978,1.8142-35.9532c6.0922-3.9948,13.5157-4.8104,20.5402-5.9589
		c-22.038-8.1228-44.1593-16.0125-66.1805-24.1186c6.8744,8.1228,6.9741,20.7064,1.731,29.6947
		c-4.3942,8.7386-16.1456,9.0216-24.5347,7.0575c-4.7605-4.1113-7.6733-9.6042-8.722-15.7628
		c1.7145-0.5826,3.4623-1.1485,5.2266-1.6978c0.799,2.6299,1.4814,5.2931,2.5967,7.8398c4.1279,8.206,18.5757,7.2406,21.6719-1.3815
		c3.8949-8.8551,2.1637-22.4541-8.306-25.6999C1665.7823-219.8994,1656.1448-222.1965,1648.4049-217.386 M1406.2035-208.3312
		c-0.4825,11.485-0.083,22.9867-0.2495,34.4718c8.722,3.046,17.4106,6.1254,26.0659,9.4044
		C1415.0922-172.7941,1412.1959-192.4851,1406.2035-208.3312 M1364.8574-172.8773c-3.7617,4.9269-9.8536,7.2572-14.7808,10.5862
		c10.1036-3.562,20.1904-7.2739,30.3107-10.8192c0.0165-11.2187-0.0333-22.4375,0.0498-33.6562
		C1375.3605-195.4479,1373.7792-182.0987,1364.8574-172.8773 M1196.7596-107.579c18.01-6.375,35.9865-12.8499,53.9965-19.2582
		c-6.2751-0.0333-13.2495,2.014-19.0087-1.3982c-5.6094-3.0294-11.8345-5.2931-16.5118-9.7207
		c-8.4889-7.3405-11.0023-18.5758-14.8141-28.5961c-3.229-7.4237-2.0306-15.7129-2.7463-23.5693
		C1195.8276-162.6573,1197.1592-135.0766,1196.7596-107.579 M988.1646-177.0552c0.1332,12.517-0.1498,25.0341,0.1832,37.5678
		c4.6273-17.0278,8.4722-37.3181,25.1339-46.9389C1005.0927-183.1473,996.6036-180.1845,988.1646-177.0552 M1778.186-183.4802
		c9.6873,8.5888,12.7166,21.3722,17.0942,32.9904c1.7311,5.4429,0.9989,11.252,1.6147,16.878
		c1.1483-14.1982,0.6823-28.4629,0.7656-42.6944C1791.1857-178.7364,1784.6774-181.1166,1778.186-183.4802 M908.3019-148.4258
		c6.8079,0.283,14.2814-1.6812,20.5067,2.014c6.3751,3.3789,13.5324,6.0255,18.143,11.8845
		c6.6414,6.7912,8.5722,16.412,11.9844,24.9509c3.7119,8.6388,2.7798,18.2263,4.1613,27.3477
		c0.2331-28.6294-0.0665-57.2421,0.1165-85.8715C944.9043-161.5255,926.7778-154.4347,908.3019-148.4258 M1823.7765-166.8851
		c0.0499,21.6718-0.1498,43.3436,0.1166,65.0154c5.3931-11.2021,6.6747-24.7844,15.8628-33.8559
		c4.8602-5.6427,12.1508-8.0062,18.4758-11.5516c3.6952-2.297,8.0562-2.4967,12.3008-2.813
		C1854.8694-155.45,1839.373-161.2924,1823.7765-166.8851 M1196.8763-82.1288c-0.2831,139.6682-0.05,279.3529-0.1167,419.0211
		c61.2037,0,122.4073,0,183.6277,0c0-161.8892,0.0498-323.7618-0.0333-485.6343
		C1319.2003-126.521,1258.03-104.3166,1196.8763-82.1288 M1405.9207-147.7434c0.1498,161.5397,0.0167,323.0793,0.0665,484.6357
		c61.0039,0.0167,122.0078,0,183.0118,0c0.0333-139.4185,0-278.8203,0.0333-418.2388
		C1527.995-103.501,1467.0244-125.7887,1405.9207-147.7434 M1170.8934-145.7959c-0.4161,6.6247,0.3661,13.5324-2.1638,19.8408
		c-2.6633,6.7745-4.5941,13.8486-7.8398,20.3901c-4.6274,8.6055-12.8334,14.5311-21.6052,18.4427
		c10.8691-3.612,21.5552-7.7899,32.4077-11.4351C1171.7589-114.287,1172.458-130.0997,1170.8934-145.7959 M1856.3342-141.0687
		c-4.5941,2.4635-9.6542,4.5774-12.8999,8.8385c-6.3085,6.4416-7.8397,15.6463-11.2188,23.6692
		c-3.0128,7.0242-2.4967,14.814-3.4788,22.2543c-1.2152,8.8884,0.516,17.7769,1.0985,26.632
		c0.283,5.6759,2.8131,10.8359,4.594,16.1456c2.1306,5.9589,4.0948,12.2341,8.5056,16.9779
		c4.594,5.6926,11.6017,8.4057,17.91,11.7181c5.626,3.2957,12.3506,1.0653,18.3594,0.1997
		c4.9602-0.6492,9.754-3.2791,12.2008-7.7898c3.7286-7.69,1.9974-16.8614-2.58-23.7857
		c-5.6426-2.3137-13.8486-4.6772-18.0597,1.2484c-2.4137,3.6952-2.0973,12.3339-8.722,8.5223
		c1.2815-5.8424,3.3622-11.8845,8.5389-15.4299c7.1406-3.4955,15.6295-2.2804,22.3041,1.781
		c7.0077,8.5389,8.5557,21.8882,2.4635,31.2926c-5.11,8.3059-15.8292,8.9217-24.4015,10.736
		c23.5194,8.8551,47.3217,16.9613,70.941,25.5334c-0.0333-47.1553,0.0499-94.3272-0.0333-141.4991
		c-16.0292-5.909-32.1914-11.4517-48.1207-17.6104c8.0728,9.6874,6.4916,24.568-0.9987,34.1722
		c-5.443,1.6146-10.8359,4.9103-16.6617,3.3456c-8.7552-0.1997-12.7001-9.5043-14.0316-16.878
		c1.2484-0.3163,3.7285-0.9155,4.9602-1.2151c1.9807,4.361,3.3623,9.0715,6.9242,12.517
		c5.1434,1.0653,10.3201,0.6492,15.1138-1.6146c5.9589-8.7719,6.8578-23.7524-3.662-29.445
		C1876.3416-144.2646,1865.0729-146.4118,1856.3342-141.0687 M837.8437-122.5262c-0.0333,47.7046-0.0333,95.4091,0,143.1136
		c26.1493-9.2213,52.1821-18.8088,78.3979-27.8471c-7.0908-1.2151-14.6642-1.8476-20.8395-5.859
		c-10.3533-8.5888-9.987-25.5334-2.0308-35.587c6.0588-5.1599,14.6144-5.0934,21.9881-3.1958
		c4.4775,4.2112,7.3904,9.5709,8.5222,15.613c-1.548,0.5826-3.0959,1.1651-4.6106,1.7644
		c-1.1985-4.7605-3.0627-9.3545-6.6913-12.7501c-5.2931-0.9987-10.9857-1.0819-15.5963,2.0806
		c-6.9576,8.489-6.6747,24.6346,4.4775,29.4617c8.5056,2.6299,18.659,5.4263,26.8317,0.3662
		c5.3264-2.763,11.0855-5.2099,15.0637-9.9038c4.8271-4.9602,6.7911-11.7514,9.1214-18.0931
		c1.6478-4.8603,3.9782-9.6042,4.2279-14.8307c2.0473-18.6424,2.7297-38.4333-4.8936-55.9771
		c-2.6633-8.8885-7.1241-18.0765-15.7296-22.5373c-6.4583-3.2458-12.9166-8.1228-20.5732-6.8078
		c-7.6735,0.7657-17.2609,1.7977-21.2557,9.471c-3.4122,7.2406-2.2138,16.5285,2.7631,22.7703
		c4.9103,3.3457,12.3007,4.3443,17.2109,0.4328c3.2957-2.5467,3.6619-6.9743,4.9602-10.6362
		c1.1318,0.1665,3.3956,0.5327,4.5275,0.7158c-0.9487,6.3584-3.7451,12.1841-8.6554,16.412
		c-5.4263,1.032-11.1688,1.9974-16.3953-0.3662c-6.2752-1.1818-8.9883-7.8564-10.3199-13.3826
		c-2.2471-8.955,0.0832-18.8754,6.8911-25.2838C876.1438-136.3083,856.9688-129.5171,837.8437-122.5262 M1614.9984-131.5811
		c0.3662,10.8192-0.0667,21.6551,0.2664,32.4744c7.9064,2.7131,15.7129,5.5261,23.5692,8.489
		C1623.5873-98.9902,1620.275-116.6505,1614.9984-131.5811 M1796.7119-112.0399c-0.3663,5.4762,0.3828,11.1521-1.3817,16.4286
		c-4.5773,12.3006-7.5236,26.6986-19.3247,34.3386c-8.5223,4.4775-16.9114,10.9191-27.1315,9.6374
		c16.1625,6.1586,32.5577,11.7014,48.8032,17.6104C1797.2112-60.0243,1798.7092-86.0903,1796.7119-112.0399 M988.3976-101.9863
		c-0.466,22.9867-0.0832,45.9735-0.1997,68.9602c17.5771-6.5249,35.3706-12.4837,52.9144-19.1251
		c-12.3839,3.7118-23.4195-3.329-33.29-9.7706C995.8879-71.8922,993.491-88.1377,988.3976-101.9863 M962.9807-74.1559
		c-1.0818,9.8039-0.5659,20.0739-4.8936,29.212c-3.2957,10.6195-7.5735,21.2057-16.3953,28.4962
		c7.1241-2.6299,14.3147-5.1267,21.4554-7.7399C962.9807-40.8493,963.53-57.5109,962.9807-74.1559 M988.1979-6.3442
		c0,114.401-0.0167,228.8187,0,343.2364c61.2202,0,122.4239,0,183.6442,0c0-136.6387,0.0166-273.2775,0-409.9163
		C1110.6384-50.7697,1049.4181-28.5486,988.1979-6.3442 M1615.1649-71.8922c-0.0333,136.2559-0.0333,272.5285,0,408.7844
		c60.7875,0.0499,121.5917-0.0832,182.3958,0.0666c0.233-114.2179,0.2-228.4359,0.0333-342.6705
		C1736.74-27.6498,1675.9524-49.8042,1615.1649-71.8922 M1823.8431-56.1293c-0.1664,10.4531-0.0333,20.8895-0.0831,31.3425
		c6.5747,2.4967,13.2494,4.7438,19.8574,7.2239c-3.7618-4.1446-8.0729-8.0062-10.3198-13.2328
		C1829.5525-39.0017,1827.2054-47.7569,1823.8431-56.1293 M837.7771,48.3846c0.1166,96.1581,0,192.3329,0.0666,288.5077
		c41.7623,0,83.5412,0,125.3035,0c0.0167-111.3717,0.0332-222.7433,0-334.1316C921.3682,18.0075,879.5061,33.0046,837.7771,48.3846
		 M1823.7931,3.9591c-0.0331,110.9721-0.0166,221.9443-0.0166,332.9331c39.3655,0.0167,78.731,0,118.0963,0
		c0.0333-96.724,0.0333-193.4481,0-290.1555C1902.4907,32.5385,1863.2086,18.074,1823.7931,3.9591 M2009.6345,113.3167
		c0.0167,417.6396-0.0333,835.2625,0.0167,1252.902c4.3943-0.3329,8.7886-0.6326,13.2329-0.7823
		c0.0164-417.1401,0-834.2803,0-1251.4205C2018.4398,113.9659,2014.0288,113.7827,2009.6345,113.3167 M837.8104,368.0184
		c0.0166,25.5168,0,51.0502,0.0166,76.5836c46.3397-0.0167,92.6627,0.0666,139.0023-0.05
		c15.0472-12.7833,30.1774-25.4668,45.2411-38.2336c6.8744-4.594,14.7476-7.4902,22.2877-10.8026
		c15.663-2.7964,31.7086-2.9795,47.5547-1.5813c6.0255-0.2996,10.9525,3.5953,16.179,5.9756
		c27.3311,12.9664,52.3153,30.6601,80.6616,41.4959c7.0243,0.6325,14.2148-0.2829,21.2389-1.032
		c12.5171-3.3622,18.3928-16.1124,24.9675-26.066c-0.5159-5.1267-0.5659-10.2866-0.5992-15.4133
		c0.4828-0.4827,1.415-1.4315,1.8976-1.8975c-3.3954-7.8898-8.1725-15.0804-14.7808-20.6065
		c-10.2532-2.1472-22.3374,0.3495-28.3463,9.6042c0.6323,3.845,1.2151,7.7066,1.781,11.5849
		c-2.63,0.3828-5.2266,0.799-7.8065,1.1985c-0.8656-4.9768-1.6312-9.9703-2.3802-14.9472
		c3.0294-3.4788,5.6759-7.3571,9.2545-10.2867c4.3777-2.3303,9.1714-3.6785,13.7988-5.4096
		C1084.4727,367.7853,961.1331,368.0517,837.8104,368.0184 M1221.1946,367.8187c12.4005,4.9935,18.5426,17.8434,24.1353,29.1287
		c2.7963-5.5262,5.343-11.2354,8.7717-16.412c3.7451-4.5607,8.2727-8.4224,12.4673-12.567
		C1251.4385,367.9019,1236.3082,368.1349,1221.1946,367.8187 M1284.0626,368.3846c4.4943,1.6146,9.3877,2.5633,13.4159,5.2931
		c3.0793,3.046,5.7094,6.5082,8.6056,9.7706c-0.9156,5.0767-1.6979,10.1701-2.5968,15.2635
		c-2.5798-0.5493-5.1432-1.0986-7.6732-1.6312c0.1497-4.6939,3.2623-10.4031-0.6825-14.2648
		c-6.2086-7.0075-16.5784-8.4723-25.417-6.9077c-6.0753,5.5428-12.3838,11.7513-14.4144,19.974
		c0.2996,6.142,0.1664,12.3339,0.7656,18.476c2.2637,4.9102,5.726,9.2213,8.8053,13.6655
		c5.9587,7.1075,12.9996,15.5132,23.2863,14.8806c69.4095,0.0999,138.8524-0.0167,208.2788,0.05
		c4.5941-0.0333,9.5376-0.5161,13.3494-3.3957c8.905-6.5415,14.5975-16.2122,20.6396-25.2338
		c0.2997-6.2086-1.964-12.8,0.7657-18.659c-3.2957-7.6733-8.0563-14.5311-14.5811-19.7743
		c-10.1202-1.8809-21.7384,0.6991-27.847,9.5709c0.5826,3.9283,1.1318,7.8564,1.781,11.818
		c-2.7963,0.3495-5.576,0.6824-8.3225,0.9821c-0.5992-4.8936-1.2983-9.7373-2.1473-14.581c1.9976-2.5134,3.9949-5.0434,6.1422-7.457
		c3.6951-4.9602,10.3531-5.626,15.7294-7.7399c-18.4425-1.1319-36.9351-0.233-55.3944-0.516
		C1392.3883,368.2348,1338.2087,367.4192,1284.0626,368.3846 M1519.7892,367.9518c3.0792,2.9628,6.2085,5.9089,9.2212,8.9716
		c5.5927,5.3597,8.0562,12.9165,11.8679,19.4913c5.5262-11.1688,12.0842-23.0866,23.8855-28.6127
		C1549.7666,368.1349,1534.7697,367.8852,1519.7892,367.9518 M1578.9287,368.4012c4.5109,1.598,9.2546,2.7798,13.4824,5.1433
		c3.5786,2.9462,6.2253,6.8245,9.188,10.3698c-0.7822,4.877-1.5145,9.754-2.2303,14.631c-2.7798-0.2497-5.5593-0.516-8.2892-0.7823
		c0.5492-3.9116,1.165-7.7899,1.8309-11.6682c-5.9589-9.0715-17.8601-11.9511-28.0134-9.704
		c-5.8925,5.2598-11.1857,11.3019-13.9319,18.8421c-0.1333,4.8604,0.7156,9.7041,0.5492,14.581
		c0.0167,2.3303-0.5991,4.9103,1.0487,6.8911c4.7271,7.1241,9.188,14.8473,16.1289,20.0905
		c6.9744,5.2764,16.0791,4.1112,24.2684,4.8603c4.2611,0.6159,8.0729-1.731,11.8346-3.3955
		c29.2285-12.4671,55.2614-31.3592,84.6064-43.6266c17.4275-2.2637,35.3042-2.1472,52.6481,0.8489
		c9.2548,4.1446,19.3416,7.3571,26.8318,14.5477c13.599,11.5849,27.2478,23.1033,40.9633,34.5717
		c44.0095,0,88.0188,0.0167,132.0449-0.0167c0-25.5334,0-51.0835,0-76.6169c-76.9331-0.0166-153.8665,0-230.783,0
		C1667.0474,368.2348,1622.9548,367.4025,1578.9287,368.4012 M1035.2866,407.8998c-3.3623,1.4814-6.7579,3.0128-9.5376,5.4429
		c-14.4645,12.2008-28.8957,24.4682-43.3935,36.6357c-2.5134,2.8297-6.5082,1.5646-9.754,1.7477
		c0.2164,1.1319,0.6325,3.379,0.8489,4.5108c27.5973,0,55.178,0.0666,82.7755-0.0333c3.146-4.9103,7.74-9.5875,13.9319-9.9038
		c9.4877-1.3482,18.8755,7.0741,18.426,16.6617c0.3661,9.5542-9.0216,17.8435-18.4594,16.4786
		c-6.1752-0.3329-10.8026-4.9436-13.8818-9.8871c-27.4642,0.0832-54.9785-0.4661-82.4261,0.2663l-1.5146,2.064
		c2.7964,0.6658,6.3917-0.3828,8.8052,1.6812c14.4312,12.1508,28.8458,24.3517,43.2603,36.5525
		c5.2766,4.8603,12.2841,6.9409,18.5925,10.0702c5.3763,2.7298,11.5516,2.4801,17.4106,3.0959
		c11.4351,1.1652,23.0699,0.6325,34.4218-1.0153c28.8792-12.3172,54.5791-30.943,83.5081-43.1438
		c4.2943-1.831,8.5721-4.7604,13.4824-3.9615c7.0408,0.6658,14.1649,0.5992,21.1891,1.4981
		c6.5082,2.2969,12.3673,6.3583,16.6949,11.7679c6.6246,8.2061,12.8832,17.0279,15.7627,27.3145
		c4.2446-14.1816,13.7322-26.3491,24.7511-36.0031c3.8949-3.7785,9.3712-5.1434,14.681-5.1766
		c71.6233-0.0333,143.2467,0.0665,214.8535-0.0333c5.3596,0.0333,11.2854,0.5992,15.3966,4.4608
		c11.3851,9.7374,21.3555,22.1212,25.5,36.7355c2.7632-10.0536,8.822-18.6757,15.2469-26.6985
		c5.626-7.3072,14.3479-13.0164,23.8191-12.9665c6.1085-0.1997,12.2173-1.0153,18.3759-0.9488
		c33.0072,11.9678,61.4368,33.523,93.6615,47.2218c15.5299,2.4136,31.4424,1.8144,46.9556-0.5492
		c9.8038-3.895,19.9073-7.9064,27.4143-15.5963c9.9204-8.3558,19.7743-16.7615,29.6946-25.084
		c5.1266-3.9282,9.5376-10.4863,16.9114-8.9883l-0.0333-2.5966c-27.5142-0.0167-55.0117-0.0832-82.5258,0.0333
		c-3.0962,4.9268-7.7067,9.5209-13.8322,9.8705c-9.4543,1.4148-18.9586-6.9077-18.5259-16.4786
		c-0.5658-9.0382,7.6901-17.2109,16.6951-16.7115c6.8243-0.3828,12.3007,4.4941,15.663,9.9703
		c27.4142,0.1332,54.8285,0.0167,82.2428,0.05c0.233-1.0986,0.6991-3.2958,0.9155-4.3943
		c-3.2957-0.3163-7.2073,0.7989-9.7872-1.8144c-15.0305-12.6168-29.8777-25.4335-45.0082-37.9339
		c-6.3417-3.6952-13.1162-6.7745-19.9906-9.3212c-15.7461-2.347-32.025-3.2291-47.6877-0.1997
		c-31.2927,13.832-59.3395,34.1722-91.3313,46.5561c-6.042,0.7989-12.1841-0.4661-18.2429-0.4661
		c-9.6539,0.3163-19.0084-4.877-24.7344-12.4837c-6.142-7.6899-12.101-15.8294-15.2136-25.2671
		c-7.3405,13.6323-15.663,27.6806-28.8623,36.5191c-3.8284,2.1805-8.4058,2.5801-12.6835,2.7132
		c-71.6234-0.0499-143.2302,0-214.8538-0.0167c-4.2776-0.1664-8.7717-0.8655-12.2506-3.4788
		c-12.4672-9.0382-20.8063-22.4541-27.481-36.0697c-1.8643,4.361-3.5121,8.8718-6.2583,12.8
		c-5.8757,8.8385-12.0842,18.426-22.1713,22.8536c-4.9935,2.9961-10.969,2.0973-16.4785,2.6465
		c-4.3944,0.05-8.8551,1.0154-13.1995,0.2997c-28.9124-11.1023-54.5623-28.8292-82.3262-42.3282
		c-3.7119-1.781-7.3071-3.9116-11.3352-4.8437c-13.2494-1.7144-26.6653-1.781-39.9313-0.1165
		C1046.8549,401.9076,1041.1456,405.3698,1035.2866,407.8998 M837.827,480.1057c0,25.134,0,50.2679,0,75.4019
		c122.3907,0.0332,244.7813-0.0667,367.1719,0.0499c-3.7285-1.4814-7.5901-2.5633-11.0521-4.5441
		c-3.4955-2.996-6.1588-6.7911-9.2214-10.17c0.7157-4.9603,1.498-9.9205,2.297-14.8641c2.5967,0.2664,5.21,0.566,7.8397,0.8823
		c-0.233,4.9935-3.5287,11.252,1.1154,15.1469c6.2585,6.7413,16.4952,7.8065,25.1339,6.1088
		c4.5273-4.7106,9.8872-8.9883,12.5337-15.147c2.6965-6.0255-1.4481-13.499,2.3969-19.0751
		c-2.8629-8.9384-8.9884-16.5119-15.2136-23.3696c-8.2391-8.672-21.1057-7.2572-31.9249-7.3904
		c-32.4745,12.5004-60.7375,33.6563-92.7627,47.0887c-13.6156,1.265-27.3311,2.1638-40.9467,0.3163
		c-11.5349,0.2996-21.4054-6.3751-31.459-11.0024c-15.8959-12.9498-31.2426-26.5987-47.1718-39.5152
		C930.3232,480.2056,884.0668,480.0392,837.827,480.1057 M1809.8613,480.0392c-15.8625,12.9997-31.2261,26.632-47.1886,39.5152
		c-6.9243,3.7784-14.1981,7.0908-21.5885,9.8372c-17.0111,2.7297-34.3719,2.7964-51.4497,0.6491
		c-29.2118-12.0176-55.0116-30.9097-84.0405-43.3435c-4.1113-1.6478-8.1061-4.5774-12.7501-3.7451
		c-8.3391,0.8156-17.6437-0.466-24.5845,5.2764c-7.8566,6.658-13.7821,15.5631-18.0267,24.901
		c1.2817,5.6926,1.4481,11.5683,1.3318,17.4107c2.5798,7.1073,7.6899,12.6501,13.1826,17.6603
		c10.1868,2.1638,21.9548-0.5826,28.1301-9.4877c-0.6492-3.9448-1.2151-7.873-1.7643-11.8013
		c2.6798-0.3495,5.3929-0.6824,8.1394-0.9653c0.849,4.9768,1.6478,9.987,2.297,15.0304c-3.0128,3.3623-5.5929,7.174-9.1216,10.0369
		c-3.3457,1.8809-7.0408,3.0128-10.5529,4.5107c120.0104-0.0332,240.0043,0,360.0146-0.0165c0-25.134,0-50.2679,0-75.4019
		C1897.88,480.0558,1853.8707,480.189,1809.8613,480.0392 M1276.8054,484.6998c-9.6707,7.2905-16.6284,17.4939-22.1045,28.1634
		c1.2318,5.8257,1.0985,11.8013,0.9987,17.7435c3.0127,7.2073,8.2059,13.033,14.0316,18.1264
		c10.137,1.8975,22.2046-0.7823,27.7307-10.2367c-0.6326-3.7451-1.1652-7.4736-1.5979-11.2188
		c2.5134-0.4661,5.0933-0.8822,7.64-1.2983c0.8989,5.0768,1.6978,10.1702,2.5134,15.2968
		c-3.0626,3.3456-5.6594,7.1574-9.1381,10.0869c-3.2126,1.8144-6.7413,2.9129-10.1368,4.2446
		c70.9077-0.1665,141.7987-0.1498,212.7063-0.0167c-3.6285-1.5313-7.5236-2.5468-10.7526-4.8104
		c-3.2126-2.9128-5.7759-6.4416-8.5723-9.7207c0.7656-4.9602,1.498-9.937,2.1639-14.8972c2.6964,0.3661,5.4263,0.749,8.1725,1.1651
		c-0.5658,3.9283-1.1317,7.8731-1.6976,11.8347c6.0089,8.6387,17.2609,11.4185,27.2312,9.6374
		c4.7104-4.6606,10.2367-8.9217,12.85-15.2302c3.6951-6.3084-1.2817-14.0816,2.5133-20.3401
		c-2.7465-6.4416-6.9742-12.1176-11.1022-17.6936c-5.4928-6.8411-12.4672-14.4478-22.0713-13.7488
		c-69.9921-0.0499-139.9678,0-209.96-0.0332C1284.2957,481.8535,1280.0179,482.2197,1276.8054,484.6998 M1245.1632,528.6592
		c-2.5132,4.0114-4.6105,8.2725-6.8909,12.4171c-3.0961,5.7592-8.5057,9.704-12.8667,14.4146
		c13.2828,0.0499,26.5656-0.0167,39.8649,0.0332c-3.795-3.9448-7.9896-7.4902-11.4185-11.7513
		C1250.6729,538.8959,1248.6089,533.3697,1245.1632,528.6592 M1532.356,543.8727c-3.3456,4.2611-7.5236,7.7567-11.252,11.6515
		c13.266-0.0499,26.5488,0,39.8315-0.0165c-3.5953-3.7951-7.5403-7.224-10.9026-11.1855
		c-3.6118-4.8104-5.7924-10.4697-8.8883-15.5797C1537.6158,533.453,1535.5686,539.0124,1532.356,543.8727 M837.827,586.6337
		c-0.0166,338.8255,0,677.6344,0,1016.4432c18.6757,0.0333,37.368,0.0167,56.0438,0.0167c0-338.8256,0.0332-677.651-0.0333-1016.46
		C875.1618,586.6337,856.5027,586.6171,837.827,586.6337 M1475.3302,586.6337c-0.0166,338.809,0.0167,677.6178-0.0166,1016.4099
		c14.7974,0.1,29.5948,0.0333,44.3922,0.05c0.0333-338.8256,0.05-677.651-0.0333-1016.4765
		C1504.8917,586.6503,1490.111,586.6171,1475.3302,586.6337 M1615.1482,586.6337c-0.0166,338.809,0.0167,677.6178-0.0166,1016.4266
		c14.2482,0.0667,28.4795,0.0166,42.7277,0.0333c0.0333-338.8256,0.05-677.651-0.0333-1016.4765
		C1643.5945,586.6337,1629.363,586.6171,1615.1482,586.6337 M1893.1196,586.6337c0,338.8255,0,677.6344,0,1016.46
		c16.2455,0,32.5077,0.0166,48.7699,0c0-338.8256,0-677.6345,0-1016.46C1925.6273,586.6337,1909.3651,586.6171,1893.1196,586.6337
		 M918.7883,586.6337c0.0167,338.8255-0.0333,677.6344,0,1016.46c14.7808,0.0166,29.5782,0,44.3756,0
		c0.0165-338.809,0-677.6345,0-1016.46C948.3665,586.6171,933.569,586.6171,918.7883,586.6337 M988.1979,586.6503
		c0,338.8088-0.0167,677.6343,0,1016.4433c15.1636,0,30.3271,0,45.4908,0c0.0166-338.8256,0-677.6345,0-1016.46
		C1018.525,586.6171,1003.3615,586.6171,988.1979,586.6503 M1058.6062,586.6337c0.0167,338.8255-0.0333,677.6344,0,1016.46
		c14.5977,0,29.1954,0,43.8097,0c0.0166-338.809,0-677.6345,0-1016.4433C1087.8016,586.6171,1073.2039,586.6171,1058.6062,586.6337
		 M1128.0159,586.6503c0,338.8088-0.0167,677.6343,0,1016.4433c14.6143,0,29.2119,0,43.8263,0c0.0166-338.8256,0-677.6345,0-1016.46
		C1157.2278,586.6171,1142.6135,586.6171,1128.0159,586.6503 M1196.7596,586.6337c0.0167,338.8255-0.0333,677.6344,0,1016.46
		c14.5977,0,29.1954,0,43.8098,0c0.0164-338.809,0-677.6345,0-1016.4433C1225.9551,586.6171,1211.3573,586.6171,1196.7596,586.6337
		 M1266.1692,586.6503c0,338.8088-0.0165,677.6343,0,1016.4433c14.9641,0,29.9113,0,44.875,0c0.0167-338.809,0-677.6345,0-1016.46
		C1296.0804,586.6337,1281.1166,586.6171,1266.1692,586.6503 M1337.1768,586.6337c0,338.8255-0.0166,677.651,0,1016.46
		c14.3979,0,28.796,0.0166,43.2106,0c0.0165-338.809,0-677.6345,0-1016.4433
		C1365.9728,586.6171,1351.5747,586.6337,1337.1768,586.6337 M1405.9872,586.6503c0,338.8088-0.0165,677.6343,0,1016.4433
		c14.3979,0,28.7959,0,43.2106,0c0.0166-338.809,0-677.6345,0-1016.46C1434.7831,586.6337,1420.3851,586.6171,1405.9872,586.6503
		 M1545.8051,586.6503c0,338.8088-0.0164,677.6343,0,1016.4433c14.3979,0,28.796,0,43.2106,0c0.0167-338.809,0-677.6345,0-1016.46
		C1574.6011,586.6337,1560.203,586.6171,1545.8051,586.6503 M1683.9585,586.6503c0,338.8088-0.0164,677.6343,0,1016.4433
		c14.215,0,28.4298,0,42.6448,0c0.0164-338.809,0-677.6345,0-1016.4433C1712.3883,586.6171,1698.1735,586.6171,1683.9585,586.6503
		 M1753.3016,586.6337c0,338.8255-0.0166,677.651,0,1016.46c14.7808,0,29.5782,0.0166,44.359,0
		c0.0833-338.8256,0.0166-677.6345,0.0166-1016.46C1782.8799,586.6171,1768.0824,586.6337,1753.3016,586.6337 M1823.7765,586.6503
		c0,338.8088-0.0165,677.6343,0,1016.4433c14.2148,0,28.4298,0,42.6447,0c0.0165-338.809,0-677.6345,0-1016.4433
		C1852.2063,586.6171,1837.9913,586.6171,1823.7765,586.6503z"/>
</g>
</svg>
